<?xml version="1.0" standalone="no"?>
<!DOCTYPE svg PUBLIC "-//W3C//DTD SVG 1.1//EN" "http://www.w3.org/Graphics/SVG/1.1/DTD/svg11.dtd" >
<svg>
<metadata>
Created by FontForge 20120731 at Thu Aug 22 20:32:09 2019
 By www
Copyright (c) 2015 DynaComware. All rights reserved.
</metadata>
<defs>
<font id="SFProPingFangSC-Semibold" horiz-adv-x="887" >
  <font-face 
    font-family="PingFang SC"
    font-weight="600"
    font-stretch="normal"
    units-per-em="1000"
    panose-1="2 11 8 0 0 0 0 0 0 0"
    ascent="859"
    descent="-141"
    bbox="-52 -131 934 853"
    underline-thickness="71"
    underline-position="-98"
    unicode-range="U+000D-2F894"
  />
<missing-glyph 
 />
    <glyph glyph-name=".notdef" 
 />
    <glyph glyph-name=".null" horiz-adv-x="0" 
 />
    <glyph glyph-name="nonmarkingreturn" horiz-adv-x="333" 
 />
    <glyph glyph-name="cid1" horiz-adv-x="0" 
 />
    <glyph glyph-name="cid2" unicode="&#xd;" horiz-adv-x="295" 
 />
    <glyph glyph-name="cid98" horiz-adv-x="0" 
 />
    <glyph glyph-name="cid112" unicode="&#xad;" horiz-adv-x="295" 
d="M37 315h222v-83h-222v83z" />
    <glyph glyph-name="cid120" unicode="&#xb5;" horiz-adv-x="516" 
d="M154 503v-287q0 -100 100 -100q36 0 66 26q32 30 42 80v281h102v-460h-102v61q-29 -36 -59 -54q-35 -19 -70 -19q-43 0 -79 27v-189h-101v634h101z" />
    <glyph glyph-name="cid224" unicode="&#x138;" horiz-adv-x="491" 
d="M53 503h101v-182l188 182h130l-202 -190l221 -270h-131l-159 204l-47 -43v-161h-101v460z" />
    <glyph glyph-name="cid228" unicode="&#x140;" horiz-adv-x="358" 
d="M291 410q21 0 35 -14q15 -15 15 -36q0 -16 -15 -34q-14 -13 -35 -13q-23 0 -33 13q-16 16 -16 34q0 22 16 36q10 14 33 14zM163 689v-646h-102v646h102z" />
    <glyph glyph-name="cid233" unicode="&#x149;" horiz-adv-x="602" 
d="M116 689l-21 -167h-78l2 167h97zM376 515q173 0 173 -189v-283h-102v274q0 113 -103 113q-36 0 -66 -26q-30 -30 -37 -84v-277h-102v460h102v-54q24 31 60 49q35 17 75 17z" />
    <glyph glyph-name="cid234" unicode="&#x14a;" horiz-adv-x="649" 
d="M165 677l313 -457h5v457h104v-674q0 -134 -144 -134h-57v82h48q49 0 49 55v44l-313 457h-5v-464h-104v634h104z" />
    <glyph glyph-name="cid235" unicode="&#x14b;" horiz-adv-x="515" 
d="M289 515q173 0 173 -189v-323q0 -134 -143 -134h-43v82h34q50 0 50 55v311q0 113 -102 113q-38 0 -67 -26q-31 -30 -37 -84v-277h-101v460h101v-54q26 31 61 49q35 17 74 17z" />
    <glyph glyph-name="cid262" unicode="&#x17f;" horiz-adv-x="335" 
d="M331 677v-86h-83q-20 0 -31 -10q-10 -13 -10 -32v-506h-101v377h-102v83h102v48q0 60 33 92q31 34 94 34h98z" />
    <glyph glyph-name="cid274" unicode="&#x2bb;" horiz-adv-x="443" 
d="M294 728q-34 -12 -59 -44q-26 -30 -25 -62q5 3 22 3q29 0 48 -19q21 -20 21 -51q0 -29 -21 -50q-22 -20 -53 -20q-37 0 -60 30q-25 29 -25 75q0 74 41 124q42 54 111 72v-58z" />
    <glyph glyph-name="cid278" unicode="&#x2c9;" horiz-adv-x="443" 
d="M83 806h277v-60h-277v60z" />
    <glyph glyph-name="cid425" unicode="&#x2ca;" horiz-adv-x="443" 
d="M207 842h111l-127 -129h-66z" />
    <glyph glyph-name="cid426" unicode="&#x2cb;" horiz-adv-x="443" 
d="M125 842h111l82 -129h-65z" />
    <glyph glyph-name="cid29219" unicode="&#x2cd;" horiz-adv-x="443" 
d="M80 3h284v-83h-284v83z" />
    <glyph glyph-name="cid285" unicode="&#x2ee;" horiz-adv-x="443" 
d="M324 786q36 0 61 -29q24 -30 24 -77q0 -70 -42 -123q-38 -51 -109 -72v59q36 14 59 42q24 32 24 63q-4 -1 -8.5 -2.5t-13.5 -1.5q-31 0 -49 21q-19 22 -19 49q0 32 20 52q23 19 53 19zM110 786q37 0 61 -29q22 -30 22 -77q0 -70 -41 -123q-42 -51 -110 -72v59
q35 13 60 42q24 32 24 63q-4 -1 -9.5 -2.5t-12.5 -1.5q-31 0 -49 21q-20 20 -20 49q0 33 22 52q20 19 53 19z" />
    <glyph glyph-name="cid311" unicode="&#x338;" horiz-adv-x="443" 
d="M345 515l43 -28l-290 -457l-43 28z" />
    <glyph glyph-name="cid312" unicode="&#x340;" horiz-adv-x="443" 
d="M125 684h111l82 -130h-65z" />
    <glyph glyph-name="cid313" unicode="&#x341;" horiz-adv-x="443" 
d="M207 684h111l-127 -130h-66z" />
    <glyph glyph-name="cid314" unicode="&#x344;" horiz-adv-x="443" 
d="M365 814l-127 -130h-66l82 130h111zM309 656q20 0 34 -15q14 -12 14 -34q0 -21 -14 -34q-17 -16 -34 -16q-21 0 -35 16q-14 13 -14 34q0 22 14 34q13 15 35 15zM136 656q20 0 35 -15q13 -12 13 -34q0 -21 -13 -34q-18 -16 -35 -16q-21 0 -35 16q-14 13 -14 34q0 22 14 34
q13 15 35 15z" />
    <glyph glyph-name="cid539" unicode="&#x2010;" horiz-adv-x="295" 
d="M37 404h222v-82h-222v82z" />
    <glyph glyph-name="cid325" unicode="&#x2015;" 
d="M0 411h887v-96h-887v96z" />
    <glyph glyph-name="cid540" unicode="&#x2016;" horiz-adv-x="443" 
d="M88 732h59v-738h-59v738zM297 732h59v-738h-59v738z" />
    <glyph glyph-name="cid326" unicode="&#x2018;" horiz-adv-x="330" 
d="M254 728q-36 -12 -61 -44q-25 -30 -23 -62q4 3 21 3q29 0 48 -19q21 -20 21 -51q0 -29 -21 -50q-22 -20 -54 -20q-36 0 -59 30q-24 29 -24 75q0 73 40 124q40 53 112 72v-58z" />
    <glyph glyph-name="cid327" unicode="&#x2019;" horiz-adv-x="330" 
d="M140 786q36 0 61 -29q24 -30 24 -77q0 -70 -42 -123q-38 -51 -110 -72v59q37 14 60 42q24 32 24 63l-10 -2.5t-12 -1.5q-30 0 -48 21q-20 21 -20 49q0 32 20 52q22 19 53 19z" />
    <glyph glyph-name="cid329" unicode="&#x201c;" horiz-adv-x="545" 
d="M469 728q-36 -12 -61 -44q-23 -31 -23 -62q4 3 23 3q28 0 48 -19q19 -20 19 -51q0 -29 -21 -50q-22 -20 -54 -20q-35 0 -59 30q-24 29 -24 75q0 73 41 124q39 53 111 72v-58zM254 728q-36 -12 -61 -44q-25 -30 -23 -62q4 3 21 3q29 0 48 -19q21 -20 21 -51q0 -29 -21 -50
q-22 -20 -54 -20q-36 0 -59 30q-24 29 -24 75q0 73 40 124q40 53 112 72v-58z" />
    <glyph glyph-name="cid330" unicode="&#x201d;" horiz-adv-x="545" 
d="M357 786q35 0 59 -29q23 -30 23 -77q0 -69 -40 -123q-20 -26 -48.5 -43.5t-62.5 -28.5v59q38 14 60 42q24 31 24 63q-4 -1 -9 -2.5t-13 -1.5q-29 0 -49 21q-19 22 -19 49q0 32 21 52q21 19 54 19zM140 786q36 0 61 -29q24 -30 24 -77q0 -70 -42 -123q-38 -51 -110 -72v59
q37 14 60 42q24 32 24 63l-10 -2.5t-12 -1.5q-30 0 -48 21q-20 21 -20 49q0 32 20 52q22 19 53 19z" />
    <glyph glyph-name="cid29220" unicode="&#x2027;" horiz-adv-x="443" 
d="M222 431q28 0 48 -20q19 -19 19 -48q0 -26 -19 -48q-22 -21 -48 -21q-28 0 -48 21q-21 19 -21 48q0 31 21 48q18 20 48 20z" />
    <glyph glyph-name="cid544" unicode="&#x2035;" horiz-adv-x="443" 
d="M125 842h111l82 -129h-65z" />
    <glyph glyph-name="cid545" unicode="&#x203b;" 
d="M443 705q30 0 50 -18q20 -20 20 -49t-20 -49q-11 -9 -22.5 -13t-27.5 -4q-29 0 -47 17q-21 20 -21 49q0 31 21 49q17 18 47 18zM443 425l211 211l63 -62l-212 -211l212 -212l-63 -61l-211 210l-211 -210l-61 61l210 212l-210 211l61 62zM171 431q31 0 48 -17
q20 -20 20 -48q0 -29 -20 -49q-21 -19 -48 -19q-30 0 -48 19q-21 19 -21 49q0 28 21 48q17 17 48 17zM714 431q32 0 51 -17q20 -20 20 -48q0 -30 -21 -49t-50 -19q-28 0 -47 19t-19 49q0 29 19 48q18 17 47 17zM443 161q28 0 50 -20q20 -20 20 -48q0 -29 -20 -48
q-11 -9 -22.5 -14t-27.5 -5q-29 0 -47 20q-21 16 -21 47q0 30 21 48q17 20 47 20z" />
    <glyph glyph-name="cid546" unicode="&#x2103;" horiz-adv-x="822" 
d="M132 783q47 0 78 -34q34 -33 34 -80q0 -45 -34 -80q-33 -33 -78 -33q-48 0 -80 33q-35 35 -35 80q0 47 35 80q31 34 80 34zM132 731q-26 0 -44 -19q-17 -18 -17 -43q0 -24 17 -42q21 -18 44 -18q21 0 42 18q17 18 17 42q0 25 -17 43q-18 19 -42 19zM510 689
q111 0 184 -58q68 -56 83 -152h-101q-17 62 -59 91q-22 15 -49.5 21.5t-61.5 6.5q-98 0 -149 -68q-46 -60 -46 -171q0 -114 46 -171q48 -66 154 -66q66 0 109 34q45 35 64 108h102q-23 -113 -100 -174q-74 -59 -175 -59q-157 0 -236 100q-68 87 -68 228q0 142 71 230
q78 100 232 100z" />
    <glyph glyph-name="cid548" unicode="&#x2109;" horiz-adv-x="777" 
d="M132 783q47 0 78 -34q34 -33 34 -80q0 -45 -34 -80q-33 -33 -78 -33q-48 0 -80 33q-35 35 -35 80q0 47 35 80q31 34 80 34zM132 731q-26 0 -44 -19q-17 -18 -17 -43q0 -24 17 -42q21 -18 44 -18q21 0 42 18q17 18 17 42q0 25 -17 43q-18 19 -42 19zM742 677v-89h-329
v-176h310v-88h-310v-281h-104v634h433z" />
    <glyph glyph-name="cid365" unicode="&#x2126;" horiz-adv-x="662" 
d="M332 689q136 0 217 -91q78 -86 78 -215q0 -166 -132 -251h132v-89h-242v100q67 40 100 90q38 58 38 152q0 95 -55 153q-55 60 -136 60t-138 -60q-55 -58 -55 -153q0 -94 38 -152q31 -50 101 -90v-100h-243v89h132q-132 84 -132 251q0 132 78 215q81 91 219 91z" />
    <glyph glyph-name="cid366" unicode="&#x212b;" horiz-adv-x="602" 
d="M301 853q32 0 56 -23q23 -25 23 -56q0 -29 -23 -54q-25 -23 -56 -23q-30 0 -55 23q-22 23 -22 54q0 33 22 56q24 23 55 23zM301 815q-16 0 -27 -11q-12 -11 -12 -30q0 -15 12 -27q10 -12 27 -12q16 0 29 12q11 14 11 27q0 18 -11 30q-14 11 -29 11zM360 677l242 -634
h-111l-57 159h-266l-57 -159h-111l242 634h118zM402 288l-99 277h-3l-101 -277h203z" />
    <glyph glyph-name="cid367" unicode="&#x212e;" horiz-adv-x="714" 
d="M357 609q133 0 220 -83q94 -86 94 -216v-18h-498v-174q36 -32 83 -49q46 -16 101 -16q81 0 145 35q62 37 101 106h46q-43 -88 -119 -135q-78 -48 -173 -48q-133 0 -221 82q-91 84 -91 217q0 131 91 216q88 83 221 83zM357 567q-55 0 -99 -16q-46 -16 -85 -51v-167h369
v168q-39 34 -83 50q-47 16 -102 16z" />
    <glyph glyph-name="cid550" unicode="&#x2160;" 
d="M392 677h103v-634h-103v634z" />
    <glyph glyph-name="cid551" unicode="&#x2161;" 
d="M267 677h105v-634h-105v634zM516 677h104v-634h-104v634z" />
    <glyph glyph-name="cid552" unicode="&#x2162;" 
d="M145 677h104v-634h-104v634zM392 677h103v-634h-103v634zM639 677h104v-634h-104v634z" />
    <glyph glyph-name="cid553" unicode="&#x2163;" 
d="M84 677h105v-634h-105v634zM265 677h114l158 -510h1l158 510h113l-211 -634h-122z" />
    <glyph glyph-name="cid554" unicode="&#x2164;" 
d="M156 677h112l175 -516h2l174 516h112l-225 -634h-125z" />
    <glyph glyph-name="cid555" unicode="&#x2165;" 
d="M78 677h113l157 -510h2l158 510h112l-209 -634h-123zM698 677h104v-634h-104v634z" />
    <glyph glyph-name="cid556" unicode="&#x2166;" 
d="M17 677h113l135 -489h2l137 489h112l-194 -634h-112zM564 677h104v-634h-104v634zM753 677h104v-634h-104v634z" />
    <glyph glyph-name="cid557" unicode="&#x2167;" 
d="M10 677h108l101 -473h3l102 473h108l-155 -634h-113zM461 677h101v-634h-101v634zM614 677h100v-634h-100v634zM766 677h101v-634h-101v634z" />
    <glyph glyph-name="cid558" unicode="&#x2168;" 
d="M70 677h112v-634h-112v634zM263 677h127l149 -224l148 224h127l-214 -306l230 -328h-128l-163 246l-163 -246h-126l225 328z" />
    <glyph glyph-name="cid559" unicode="&#x2169;" 
d="M167 677h127l149 -224l150 224h127l-215 -306l228 -328h-127l-163 246l-163 -246h-127l227 328z" />
    <glyph glyph-name="cid560" unicode="&#x216a;" 
d="M72 677h127l148 -224l149 224h127l-213 -306l228 -328h-127l-164 246l-163 -246h-127l227 328zM705 677h111v-634h-111v634z" />
    <glyph glyph-name="cid561" unicode="&#x216b;" 
d="M21 677h127l119 -216l121 216h128l-184 -314l186 -320h-126l-125 222l-122 -222h-128l188 320zM560 677h112v-634h-112v634zM748 677h112v-634h-112v634z" />
    <glyph glyph-name="cid562" unicode="&#x2170;" 
d="M443 689q30 0 50 -19q20 -18 20 -47q0 -31 -20 -49q-11 -10 -22.5 -14.5t-27.5 -4.5q-29 0 -47 19q-21 18 -21 49t21 47q17 19 47 19zM494 503v-460h-102v460h102z" />
    <glyph glyph-name="cid563" unicode="&#x2171;" 
d="M320 689q32 0 49 -19q20 -18 20 -47q0 -32 -21 -49q-21 -19 -48 -19t-49 19q-19 22 -19 49q0 29 19 47q19 19 49 19zM568 689q30 0 49 -19q19 -18 19 -47q0 -31 -19 -49q-22 -19 -49 -19q-28 0 -49 19q-20 20 -20 49t20 47q19 19 49 19zM370 503v-460h-100v460h100z
M618 503v-460h-101v460h101z" />
    <glyph glyph-name="cid564" unicode="&#x2172;" 
d="M212 689q30 0 50 -19q9 -9 14.5 -21t5.5 -26q0 -29 -21 -49q-22 -19 -49 -19q-28 0 -49 19q-18 18 -18 49q0 30 18 47q19 19 49 19zM443 689q30 0 50 -19q20 -18 20 -47q0 -31 -20 -49q-11 -10 -22.5 -14.5t-27.5 -4.5q-29 0 -47 19q-21 18 -21 49t21 47q17 19 47 19z
M676 689q30 0 49 -19q20 -18 20 -47q0 -31 -20 -49q-22 -19 -49 -19q-16 0 -27 4.5t-21 14.5q-21 18 -21 49t21 47q18 19 48 19zM262 503v-460h-101v460h101zM494 503v-460h-102v460h102zM726 503v-460h-101v460h101z" />
    <glyph glyph-name="cid565" unicode="&#x2173;" 
d="M181 689q31 0 49 -19q21 -20 21 -47q0 -29 -21 -49q-22 -19 -49 -19q-28 0 -48 19q-21 20 -21 49t21 47q18 19 48 19zM231 503v-460h-101v460h101zM435 503l110 -331l109 331h110l-169 -460h-101l-170 460h111z" />
    <glyph glyph-name="cid566" unicode="&#x2174;" 
d="M224 503h109l110 -333l110 333h111l-170 -460h-102z" />
    <glyph glyph-name="cid567" unicode="&#x2175;" 
d="M233 503l110 -331l110 331h110l-170 -460h-100l-169 460h109zM707 689q29 0 49 -19q20 -18 20 -47q0 -32 -21 -49q-21 -19 -48 -19q-28 0 -50 19q-18 18 -18 49q0 30 18 47q20 19 50 19zM757 503v-460h-102v460h102z" />
    <glyph glyph-name="cid568" unicode="&#x2176;" 
d="M593 689q29 0 49 -19q19 -18 19 -47q0 -31 -19 -49q-22 -19 -49 -19q-28 0 -48 19q-21 18 -21 49t21 47q18 19 48 19zM798 689q29 0 49 -19q19 -18 19 -47q0 -32 -20 -49q-21 -19 -48 -19q-28 0 -50 19q-19 18 -19 49q0 30 19 47q20 19 50 19zM142 503l111 -331l110 331
h109l-169 -460h-100l-170 460h109zM643 503v-460h-101v460h101zM848 503v-460h-101v460h101z" />
    <glyph glyph-name="cid569" unicode="&#x2177;" 
d="M495 689q29 0 47 -19q20 -18 20 -47q0 -31 -20 -49q-20 -19 -47 -19q-26 0 -47 19q-17 18 -17 49q0 30 17 47q19 19 47 19zM655 689q30 0 48 -19q20 -18 20 -47q0 -31 -20 -49q-20 -19 -48 -19q-25 0 -46 19q-18 22 -18 49q0 29 18 47q19 19 46 19zM815 689q29 0 49 -19
q18 -17 18 -47q0 -32 -18 -49q-22 -19 -49 -19q-25 0 -45 19q-19 18 -19 49q0 30 19 47q18 19 45 19zM128 503l88 -328l90 328h106l-149 -460h-95l-146 460h106zM545 503v-460h-98v460h98zM705 503v-460h-97v460h97zM865 503v-460h-97v460h97z" />
    <glyph glyph-name="cid570" unicode="&#x2178;" 
d="M183 689q30 0 49 -19q20 -18 20 -47q0 -31 -20 -49q-22 -19 -49 -19t-48 19q-21 18 -21 49t21 47q18 19 48 19zM233 503v-460h-101v460h101zM446 503l96 -141l94 141h119l-158 -215l178 -245h-120l-113 170l-116 -170h-118l179 245l-158 215h117z" />
    <glyph glyph-name="cid571" unicode="&#x2179;" 
d="M230 503h118l96 -141l95 141h117l-157 -215l178 -245h-119l-114 170l-114 -170h-120l178 245z" />
    <glyph glyph-name="cid375" unicode="&#x2206;" horiz-adv-x="620" 
d="M253 677h114l243 -634h-601zM310 542l-157 -407h314z" />
    <glyph glyph-name="cid593" unicode="&#x2236;" horiz-adv-x="443" 
d="M222 677q30 0 49 -19q19 -20 19 -48q0 -31 -19 -48q-21 -20 -49 -20q-30 0 -49 20q-20 18 -20 48t20 48q18 19 49 19zM222 177q30 0 49 -17q19 -20 19 -49t-19 -49q-19 -19 -49 -19t-49 20q-20 19 -20 48q0 30 20 49q18 17 49 17z" />
    <glyph glyph-name="cid388" unicode="&#x22c5;" horiz-adv-x="310" 
d="M156 430q25 0 47 -19q19 -19 19 -46q0 -28 -19 -48q-22 -19 -47 -19q-30 0 -47 19q-21 19 -21 48q0 27 21 46q17 19 47 19z" />
    <glyph glyph-name="cid8004" unicode="&#x9f99;" 
d="M557 -35q-93 0 -93 100q-31 -15 -63 -29.5t-65 -27.5l-51 78q97 34 179 89v324h-89q-6 -45 -12.5 -86t-16.5 -80q-52 -228 -253 -382l-61 75q171 133 224 324q8 34 14.5 71.5t12.5 77.5h-230v89h238q7 87 7 184h92q0 -49 -1.5 -94.5t-3.5 -89.5h456v-89h-287v-248
q42 41 77 90.5t65 105.5l82 -43q-44 -86 -100 -153.5t-124 -121.5v-44q0 -35 30 -35h128q19 0 28 19q10 19 15 126l86 -30q-10 -143 -36 -174q-24 -26 -75 -26h-173zM581 779q48 -31 88 -60t74 -59l-64 -63q-27 28 -67 59t-91 64z" />
    <glyph glyph-name="cid8004" unicode="&#x2ef0;" 
d="M557 -35q-93 0 -93 100q-31 -15 -63 -29.5t-65 -27.5l-51 78q97 34 179 89v324h-89q-6 -45 -12.5 -86t-16.5 -80q-52 -228 -253 -382l-61 75q171 133 224 324q8 34 14.5 71.5t12.5 77.5h-230v89h238q7 87 7 184h92q0 -49 -1.5 -94.5t-3.5 -89.5h456v-89h-287v-248
q42 41 77 90.5t65 105.5l82 -43q-44 -86 -100 -153.5t-124 -121.5v-44q0 -35 30 -35h128q19 0 28 19q10 19 15 126l86 -30q-10 -143 -36 -174q-24 -26 -75 -26h-173zM581 779q48 -31 88 -60t74 -59l-64 -63q-27 28 -67 59t-91 64z" />
    <glyph glyph-name="cid7771" unicode="&#x9ad8;" 
d="M473 779q6 -17 11.5 -34.5t10.5 -36.5h342v-86h-789v86h347q-13 30 -26 52zM620 -45l-22 81l69 -2q46 0 46 31v216h-540v-330h-89v411h718v-316q0 -91 -108 -91h-74zM703 586v-189h-519v189h519zM615 516h-341v-48h341v48zM627 246v-190h-365v190h365zM546 178h-203v-55
h203v55z" />
    <glyph glyph-name="cid7771" unicode="&#x2fbc;" 
d="M473 779q6 -17 11.5 -34.5t10.5 -36.5h342v-86h-789v86h347q-13 30 -26 52zM620 -45l-22 81l69 -2q46 0 46 31v216h-540v-330h-89v411h718v-316q0 -91 -108 -91h-74zM703 586v-189h-519v189h519zM615 516h-341v-48h341v48zM627 246v-190h-365v190h365zM546 178h-203v-55
h203v55z" />
    <glyph glyph-name="cid821" unicode="&#x3001;" horiz-adv-x="538" 
d="M137 177q58 -38 108 -92q44 -44 81 -95l-61 -52q-19 25 -38 49t-41 47q-23 26 -49 49t-53 46z" />
    <glyph glyph-name="cid822" unicode="&#x3002;" horiz-adv-x="595" 
d="M214 178q50 0 87 -34q36 -36 36 -85q0 -51 -36 -85q-37 -35 -87 -35q-51 0 -88 34q-36 33 -36 86q0 52 36 85q36 34 88 34zM214 117q-25 0 -42 -18q-9 -7 -13.5 -17.5t-4.5 -22.5q0 -24 18 -41q17 -16 42 -16q21 0 41 16q19 19 19 41q0 25 -19 40q-20 18 -41 18z" />
    <glyph glyph-name="cid824" unicode="&#x3005;" 
d="M452 737q-16 -48 -34 -92.5t-37 -87.5h399v-70q-85 -210 -245 -330q36 -29 70.5 -59.5t67.5 -63.5l-68 -68q-54 61 -131 126t-179 137l63 61q29 -20 55 -39t52 -39q134 101 212 256h-344q-36 -58 -75.5 -106t-84.5 -88l-67 60q181 181 259 426z" />
    <glyph glyph-name="cid829" unicode="&#x300a;" horiz-adv-x="679" 
d="M395 778l80 -35l-172 -380l168 -380l-76 -34l-183 414zM549 778l76 -35l-168 -380l168 -380l-76 -34l-184 414z" />
    <glyph glyph-name="cid830" unicode="&#x300b;" horiz-adv-x="677" 
d="M129 778l184 -415l-184 -414l-76 34l169 380l-169 380zM284 778l183 -415l-183 -414l-77 34l169 380l-172 380z" />
    <glyph glyph-name="cid831" unicode="&#x300c;" horiz-adv-x="602" 
d="M280 778h295v-84h-203v-460h-92v544z" />
    <glyph glyph-name="cid832" unicode="&#x300d;" horiz-adv-x="600" 
d="M229 493h92v-544h-295v82h203v462z" />
    <glyph glyph-name="cid1246" unicode="&#x4e00;" 
d="M40 416h806v-93h-806v93z" />
    <glyph glyph-name="cid1247" unicode="&#x4e01;" 
d="M830 719v-90h-332v-570q0 -100 -102 -100h-142l-19 89q32 -2 65 -4t65 -2q39 0 39 40v547h-347v90h773z" />
    <glyph glyph-name="cid1248" unicode="&#x4e03;" 
d="M848 483l-433 -79v-319q0 -22 22 -22h249q25 0 37 19q10 16 13 126l90 -31q-8 -142 -34 -174q-24 -29 -89 -29h-288q-94 0 -94 98v316l-272 -50l-15 89l287 53v287h94v-271l418 77z" />
    <glyph glyph-name="cid1249" unicode="&#x4e07;" 
d="M835 722v-89h-448v-44q-2 -32 -3.5 -61.5t-3.5 -57.5h384q-2 -183 -9 -292t-21 -146q-29 -72 -98 -72q-33 0 -71 1.5t-82 4.5l-24 88q47 -2 85.5 -3t69.5 -4q35 4 45 58q3 26 6 95.5t4 183.5h-301q-18 -120 -59 -209q-69 -143 -222 -220l-53 81q150 81 204 207
q25 69 39 154t17 192v44h-242v89h783z" />
    <glyph glyph-name="cid1250" unicode="&#x4e08;" 
d="M492 632v139h92v-139h253v-91h-255q-17 -214 -111 -348q151 -103 388 -162l-46 -83q-248 65 -403 174q-119 -107 -327 -170l-50 79q102 32 177.5 69.5t125.5 81.5q-69 61 -112 134t-66 156l81 27q39 -142 158 -248q76 120 92 290h-436v91h439z" />
    <glyph glyph-name="cid1251" unicode="&#x4e09;" 
d="M104 713h680v-90h-680v90zM164 410h559v-90h-559v90zM42 84h804v-93h-804v93z" />
    <glyph glyph-name="cid1252" unicode="&#x4e0a;" 
d="M354 771h95v-263h329v-89h-329v-347h394v-90h-797v90h308v699z" />
    <glyph glyph-name="cid1253" unicode="&#x4e0b;" 
d="M841 734v-91h-374v-109q81 -38 162.5 -82.5t164.5 -93.5l-55 -83q-83 52 -150 92t-122 69v-485h-94v692h-327v91h795z" />
    <glyph glyph-name="cid1255" unicode="&#x4e0d;" 
d="M826 734v-91h-284q-13 -25 -25 -49t-26 -47v-597h-95v467q-121 -136 -303 -245l-61 81q287 162 404 390h-376v91h766zM603 492q74 -59 136 -117t114 -116l-74 -73q-43 56 -103 116t-139 125z" />
    <glyph glyph-name="cid1256" unicode="&#x4e0e;" 
d="M313 768l-12 -107h473v-87h-481l-13 -118h514q0 -375 -51 -435q-55 -58 -221 -58q-23 0 -46.5 1.5t-49.5 3.5l-25 85q37 -5 62.5 -6.5t38.5 -1.5q143 0 170 46q29 49 29 278h-525l43 405zM606 254v-89h-517v89h517z" />
    <glyph glyph-name="cid1258" unicode="&#x4e11;" 
d="M631 654h-242l-27 -234h252zM268 420l28 234h-184v89h617l-46 -679h156v-89h-792v89h181l31 266h-125v90h134zM321 64h263l21 266h-253z" />
    <glyph glyph-name="cid1259" unicode="&#x4e13;" 
d="M288 512q6 21 10.5 42t10.5 40h-207v86h227q5 26 9.5 51t9.5 50l95 -9q-4 -24 -8 -46.5t-9 -45.5h366v-86h-384q-6 -21 -9.5 -41.5t-9.5 -40.5h457v-88h-481q-7 -23 -14.5 -46.5t-14.5 -44.5h407v-80q-59 -87 -183 -176q34 -13 66.5 -25.5t64.5 -25.5l-50 -80
q-199 91 -404 144l49 72q45 -12 88.5 -24t84.5 -26q110 68 171 135h-426q15 44 30.5 88t28.5 89h-221v88h246z" />
    <glyph glyph-name="cid1260" unicode="&#x4e14;" 
d="M268 442v-140h352v140h-352zM620 529v128h-352v-128h352zM268 216v-145h352v145h-352zM46 71h129v673h538v-673h128v-90h-795v90z" />
    <glyph glyph-name="cid1262" unicode="&#x4e16;" 
d="M38 572h107v189h93v-189h150v198h91v-198h152v198h92v-198h124v-90h-124v-280h-335v280h-150v-405h578v-94h-671v499h-107v90zM479 482v-189h152v189h-152z" />
    <glyph glyph-name="cid1263" unicode="&#x4e18;" 
d="M249 73h289v307h-289v-307zM834 73v-90h-780v90h102v599q312 33 508 97l49 -82q-105 -30 -220 -53t-244 -38v-126h543v-90h-161v-307h203z" />
    <glyph glyph-name="cid1264" unicode="&#x4e19;" 
d="M437 316q-53 -128 -171 -211l-69 61q149 102 189 292h-202v-507h-91v595h304q1 12 1.5 25.5t0.5 26.5v47h-352v91h792v-91h-348v-47v-27t-1 -25h306v-478q0 -110 -100 -110h-107l-24 89l102 -5q36 0 36 46v370h-225q-6 -34 -13 -64q118 -83 219 -198l-52 -79
q-95 121 -195 199z" />
    <glyph glyph-name="cid1265" unicode="&#x4e1a;" 
d="M393 767v-695h98v695h93v-695h255v-90h-792v90h254v695h92zM823 576q-50 -229 -127 -399l-84 31q37 76 68.5 174t61.5 217zM141 601q34 -90 64 -190t56 -215l-85 -21q-44 206 -113 400z" />
    <glyph glyph-name="cid1266" unicode="&#x4e1b;" 
d="M836 70v-90h-784v90h784zM302 748q0 -76 -3.5 -141t-12.5 -124q48 -45 88 -89t73 -89l-66 -67q-22 37 -49 74.5t-62 77.5q-38 -178 -174 -299l-59 70q115 107 149 256q27 129 28 331h88zM644 763q0 -61 -2.5 -116t-9.5 -106q59 -239 205 -380l-58 -70q-112 118 -176 282
q-45 -171 -185 -286l-59 72q128 109 166 263q29 133 31 341h88z" />
    <glyph glyph-name="cid1267" unicode="&#x4e1c;" 
d="M279 676q11 25 21.5 50.5t20.5 53.5l92 -21q-15 -43 -33 -83h436v-91h-477q-28 -55 -57 -102.5t-62 -89.5h195v117h93v-117h272v-87h-272v-260q0 -92 -97 -92h-93l-21 89q22 -2 42 -3.5t40 -1.5q36 0 36 31v237h-291l-22 85q70 75 135 194h-176v91h218zM307 198
q-83 -115 -208 -206l-61 78q123 79 204 184zM653 259q58 -51 107 -100.5t89 -98.5l-68 -69q-33 48 -80.5 100t-108.5 107z" />
    <glyph glyph-name="cid1268" unicode="&#x4e1d;" 
d="M839 71v-88h-792v88h792zM339 726q-77 -154 -156 -251q30 2 59 5.5t59 6.5q12 21 24 43t27 45l86 -29q-108 -180 -220 -304q50 4 99 11.5t97 16.5l18 -83q-153 -26 -339 -38l-17 88q63 12 170 167q-37 -4 -74.5 -8.5t-77.5 -11.5l-22 84q21 9 38 33q81 119 141 259z
M714 726q-74 -153 -153 -251q59 6 118 13q12 20 23 41t24 43l88 -30q-106 -177 -217 -302q54 5 104.5 12.5t100.5 16.5l18 -83q-155 -24 -349 -38l-15 88q63 11 170 168q-37 -4 -75.5 -8.5t-79.5 -11.5l-23 84q20 8 39 33q83 119 140 259z" />
    <glyph glyph-name="cid14992" unicode="&#x4e1f;" 
d="M802 744v-87h-311v-107h277v-87h-277v-97h356v-89h-475q-71 -147 -126 -219q97 5 193.5 16t192.5 23q-36 50 -75 100l71 46q59 -71 104 -131.5t78 -113.5l-77 -54q-10 19 -21.5 37.5t-24.5 36.5q-253 -33 -555 -51l-20 83q15 4 18 8q57 41 147 219h-235v89h355v97h-276
v87h276v107h-312v87h717z" />
    <glyph glyph-name="cid14994" unicode="&#x4e21;" 
d="M46 652v90h795v-90h-350v-76h319v-513q0 -98 -97 -98h-88l-25 89l84 -4q36 0 36 35v401h-229v-284h85v213h91v-296h-443v292h89v-209h83v284h-229v-524h-90v614h319v76h-350z" />
    <glyph glyph-name="cid1270" unicode="&#x4e22;" 
d="M798 689q-68 -12 -144.5 -22.5t-162.5 -17.5v-99h277v-87h-277v-97h356v-89h-475q-72 -149 -128 -219q98 5 195 16t193 23q-36 50 -75 100l71 46q59 -71 104 -131.5t78 -113.5l-77 -54q-10 19 -21.5 37.5t-24.5 36.5q-253 -33 -555 -51l-21 83q15 3 19 8q57 41 147 219
h-235v89h355v97h-276v87h276v93q-133 -7 -287 -7l-27 79q395 0 672 48z" />
    <glyph glyph-name="cid1271" unicode="&#x4e24;" 
d="M838 739v-90h-230v-114h195v-470q0 -106 -85 -106h-93l-25 89l87 -3q24 0 24 40v123l-56 -85q-21 54 -38.5 97.5t-33.5 76.5q-33 -135 -106 -215l-69 61q94 101 110 305h-159q-2 -20 -4 -37.5t-5 -34.5q23 -30 46.5 -62t46.5 -66l-53 -78q-34 73 -58 120
q-32 -113 -96 -185l-61 54v-204h-92v580h194v114h-229v90h790zM175 448v-273q83 97 97 273h-97zM522 535v114h-159v-114h159zM711 448h-106q-1 -14 -1.5 -27.5t-3.5 -25.5q29 -41 56.5 -86t54.5 -96v235z" />
    <glyph glyph-name="cid1272" unicode="&#x4e25;" 
d="M810 745v-87h-226v-194h242v-87h-619v-126q-4 -190 -112 -305l-70 61q86 87 89 244v213h225v194h-221v87h692zM499 464v194h-75v-194h75zM759 619q-12 -40 -26 -74.5t-34 -63.5l-74 27q32 50 59 132zM230 642q33 -58 59 -128l-74 -34q-16 39 -30.5 73t-32.5 64z" />
    <glyph glyph-name="cid14996" unicode="&#x4e26;" 
d="M60 527v86h216q-17 33 -35.5 63t-37.5 57l79 37q21 -30 41 -64t40 -70l-46 -23h210q23 39 42.5 77.5t35.5 79.5l90 -31q-16 -35 -31.5 -66t-33.5 -60h196v-86h-237v-458h252v-89h-794v89h250v458h-237zM499 69v458h-111v-458h111zM187 459q20 -65 37 -136.5t32 -149.5
l-84 -18q-13 81 -30 152.5t-37 134.5zM786 441q-16 -83 -36 -155t-45 -134l-84 30q23 55 42.5 125.5t35.5 155.5z" />
    <glyph glyph-name="cid1273" unicode="&#x4e27;" 
d="M397 677v95h93v-95h313v-87h-313v-197h346v-88h-377q12 -31 35 -60t53 -56q83 33 162 109l59 -58q-68 -66 -149 -103q46 -28 101.5 -52.5t123.5 -46.5l-54 -87q-351 131 -425 354h-106v-236q43 13 82.5 27t72.5 30l18 -85q-113 -46 -273 -80l-27 86q35 17 35 65v193h-117
v88h347v197h-324v87h324zM203 581q21 -32 40 -69t39 -77l-78 -39q-34 81 -75 150zM754 546q-33 -77 -82 -151l-75 39q52 73 82 147z" />
    <glyph glyph-name="cid1275" unicode="&#x4e2a;" 
d="M491 507v-556h-95v556h95zM484 772q55 -89 148.5 -166t227.5 -146l-56 -83q-243 124 -361 309q-71 -101 -161 -178t-200 -131l-56 83q244 119 376 312h82z" />
    <glyph glyph-name="cid1276" unicode="&#x4e2b;" 
d="M786 720q-62 -93 -135.5 -168t-156.5 -136v-464h-94v507q209 148 307 314zM194 759q69 -69 121.5 -128t89.5 -111l-76 -54q-80 112 -213 245z" />
    <glyph glyph-name="cid1278" unicode="&#x4e2d;" 
d="M396 776h95v-151h314v-434h-93v50h-221v-297h-95v297h-221v-50h-94v434h315v151zM175 331h221v203h-221v-203zM491 331h221v203h-221v-203z" />
    <glyph glyph-name="cid1279" unicode="&#x4e30;" 
d="M126 453h270v114h-312v91h312v112h95v-112h319v-91h-319v-114h278v-93h-278v-112h340v-91h-340v-206h-95v206h-338v91h338v112h-270v93z" />
    <glyph glyph-name="cid1280" unicode="&#x4e32;" 
d="M121 689h275v85h95v-85h275v-247h-275v-71h310v-273h-310v-147h-95v147h-308v273h308v71h-275v247zM674 520v91h-183v-91h183zM396 520v91h-182v-91h182zM707 176v117h-216v-117h216zM396 176v117h-215v-117h215z" />
    <glyph glyph-name="cid1281" unicode="&#x4e34;" 
d="M297 770v-816h-92v816h92zM822 -42h-90v40h-273v-40h-90v424h453v-424zM554 85v212h-95v-212h95zM641 85h91v212h-91v-212zM606 570q71 -71 111 -125l-72 -52q-42 61 -110 134zM150 659v-560h-90v560h90zM483 580q-24 -47 -49.5 -86.5t-53.5 -73.5l-67 79q87 100 151 280
l93 -22q-8 -22 -15 -43.5t-16 -42.5h313v-91h-356z" />
    <glyph glyph-name="cid1282" unicode="&#x4e36;" 
d="M347 541q88 -77 160 -152.5t133 -151.5l-72 -72q-52 72 -123.5 150t-165.5 160z" />
    <glyph glyph-name="cid1283" unicode="&#x4e38;" 
d="M316 617v150h92v-150h275l-18 -532q0 -29 26 -29h35q17 0 28 14q4 10 8 42t8 94l90 -29q-19 -160 -46 -185q-29 -24 -80 -24h-73q-90 0 -90 92l13 468h-180q-6 -59 -13 -112.5t-21 -101.5q37 -26 70 -53.5t65 -58.5l-55 -83q-27 28 -54.5 52.5t-54.5 47.5q-5 -9 -8 -17.5
t-9 -17.5q-70 -148 -234 -229l-53 82q162 84 217 215q4 7 6 13.5t4 12.5q-72 54 -142 91l49 73q58 -32 118 -71q9 36 14.5 75t7.5 82h-221v89h226z" />
    <glyph glyph-name="cid1284" unicode="&#x4e39;" 
d="M208 385v358h512v-358h119v-88h-119v-254q0 -85 -94 -85h-104l-26 89q28 -1 53 -2.5t48 -1.5q28 0 28 34v220h-328q-23 -207 -136 -346l-71 64q92 116 113 282h-156v88h161zM625 658h-323v-273h323v273zM432 629q82 -95 125 -161l-73 -52q-24 37 -55.5 79t-71.5 86z" />
    <glyph glyph-name="cid1285" unicode="&#x4e3a;" 
d="M175 752q39 -39 68 -73.5t51 -64.5l-72 -49q-23 31 -52 65.5t-65 71.5zM496 380q46 -50 80 -93.5t60 -79.5l-83 -58q-24 41 -56.5 86.5t-74.5 97.5zM442 772v-134q-1 -19 -2 -38.5t-2 -37.5h361q0 -392 -35 -499q-36 -107 -126 -107q-35 0 -64 1.5t-53 3.5l-26 90
q39 -4 73 -7t64 -3q56 7 64 139q4 67 5.5 140t1.5 152h-273q-22 -167 -78 -279q-80 -155 -259 -238l-51 82q175 89 240 226q18 43 32 95.5t22 113.5h-265v90h274q2 19 2.5 38t2.5 38v134h92z" />
    <glyph glyph-name="cid1286" unicode="&#x4e3b;" 
d="M77 541v91h316q-9 31 -22 60.5t-27 57.5l92 26q31 -79 48 -144h326v-91h-319v-174h275v-89h-275v-207h350v-90h-794v90h349v207h-275v89h275v174h-319z" />
    <glyph glyph-name="cid1287" unicode="&#x4e3d;" 
d="M835 735v-89h-783v89h783zM253 -46l-23 83l59 -3q27 0 27 33v147l-68 -29q-38 113 -77 197v-431h-86v630h315v-533q0 -94 -83 -94h-64zM235 420q23 -44 43 -91.5t38 -96.5v263h-145v-102zM654 -46l-23 83l53 -3q30 0 30 31v146l-66 -28q-36 111 -78 198v-430h-86v630h316
v-535q0 -92 -89 -92h-57zM632 420q46 -88 82 -191v266h-144v-101z" />
    <glyph glyph-name="cid1288" unicode="&#x4e3e;" 
d="M218 760q21 -33 41 -69.5t39 -78.5l-73 -37h339q28 47 52.5 96t43.5 102l87 -31q-41 -98 -87 -167h166v-90h-177q70 -95 207 -152l-41 -84q-77 40 -131 87v-64h-193v-76h309v-89h-309v-156h-95v156h-309v89h309v76h-192v65q-54 -45 -121 -83l-51 82q142 66 203 149h-175
v90h158q-17 42 -36 79t-37 70zM396 363v88h95v-88h161q-58 57 -95 122h-234q-33 -65 -90 -122h163zM424 771q20 -33 38 -69l38 -76l-79 -40q-31 83 -69 150z" />
    <glyph glyph-name="cid1290" unicode="&#x4e43;" 
d="M687 734v-46q-20 -109 -51 -224h182v-42q-10 -247 -28 -324q-19 -79 -56 -107q-38 -29 -120 -29h-115l-30 92q33 -2 62.5 -4t54.5 -2q60 0 86 20q24 20 34 77q4 27 8.5 85t9.5 149h-210q22 69 39 134t29 130h-208q-14 -287 -64 -420q-59 -155 -205 -271l-62 82
q64 48 109 105.5t72 124.5q47 117 58 379h-204v91h609z" />
    <glyph glyph-name="cid1291" unicode="&#x4e45;" 
d="M470 243q-159 -195 -386 -292l-54 95q335 128 519 514h-239q-81 -126 -209 -222l-63 80q200 148 268 363l102 -13q-10 -30 -21.5 -58.5t-23.5 -56.5h297v-79q-60 -144 -132 -251q100 -175 326 -282l-75 -86q-208 117 -309 288z" />
    <glyph glyph-name="cid1293" unicode="&#x4e48;" 
d="M645 345q55 -80 102 -165t86 -176l-90 -42q-10 23 -19.5 44.5t-17.5 40.5q-111 -19 -249 -34t-305 -25l-25 94q36 16 78 59q187 214 338 479l95 -46q-104 -169 -190 -288.5t-157 -193.5q96 6 188.5 16.5t184.5 23.5q-26 51 -53 95.5t-54 88.5zM471 756
q-75 -153 -168 -273t-203 -213l-67 79q99 76 182 182.5t155 247.5z" />
    <glyph glyph-name="cid1294" unicode="&#x4e49;" 
d="M393 773q40 -47 74 -98.5t63 -108.5l-84 -42q-32 59 -66.5 111t-72.5 100zM758 709q-29 -153 -87.5 -275.5t-147.5 -220.5q71 -54 151.5 -97t174.5 -75l-59 -86q-96 36 -180.5 83t-156.5 106q-148 -126 -357 -194l-53 85q196 62 335 177q-165 161 -264 394l85 47
q89 -225 248 -375q82 90 138 201t82 250z" />
    <glyph glyph-name="cid1295" unicode="&#x4e4b;" 
d="M424 776q20 -33 38 -70.5t37 -79.5h271v-70q-150 -287 -433 -439q53 -47 129 -53q61 -3 178 -3q35 0 83.5 2t110.5 5l-23 -91h-158q-59 0 -101 0.5t-67 1.5q-147 2 -221 81q-28 30 -46 30q-25 0 -97 -135l-73 51q89 180 172 180q16 0 32 -8l4.5 -1.5t2.5 -1.5
q256 137 393 360h-549v91h289q-18 35 -37 68.5t-42 64.5z" />
    <glyph glyph-name="cid1296" unicode="&#x4e4c;" 
d="M631 188v-88h-584v88h584zM538 38q30 -2 57 -3t54 -1q33 0 43 30q9 29 11 195h-540v425h180q20 48 31 100l97 -14q-5 -23 -14.5 -44t-20.5 -42h265q-2 -96 -8.5 -156t-19.5 -86q-28 -50 -128 -50h-51l-26 81q24 -1 47.5 -1.5t46.5 -0.5q35 0 42 28q5 32 5 100h-350v-255
h538q-5 -260 -29 -328q-26 -65 -119 -65h-84z" />
    <glyph glyph-name="cid1297" unicode="&#x4e4d;" 
d="M270 564q-35 -64 -76 -117.5t-84 -99.5l-62 77q124 123 218 352l96 -20q-22 -56 -45 -102h516v-90h-391v-121h323v-89h-323v-121h348v-90h-348v-188h-94v609h-78z" />
    <glyph glyph-name="cid1298" unicode="&#x4e4e;" 
d="M411 362v258q-137 -10 -297 -10l-30 86q200 0 365.5 16t303.5 47l46 -80q-65 -16 -138 -29t-158 -21v-267h338v-91h-338v-213q0 -101 -93 -101h-121l-21 90q29 -2 56.5 -4t53.5 -2q33 0 33 41v189h-363v91h363zM753 588q-34 -115 -87 -198l-85 30q23 39 43.5 86.5
t37.5 106.5zM235 578q44 -74 76 -158l-78 -36q-19 49 -39.5 89.5t-43.5 77.5z" />
    <glyph glyph-name="cid1299" unicode="&#x4e4f;" 
d="M805 688q-269 -61 -711 -61l-28 86q204 0 377 14.5t315 42.5zM435 617q31 -51 60 -114h258v-85q-149 -197 -407 -318q54 -39 120 -39q25 0 54.5 -0.5t63.5 -0.5q62 0 125.5 1t131.5 4l-19 -95h-223q-34 0 -64.5 1t-56.5 2q-47 2 -83.5 9t-62.5 20q-44 19 -70 49
q-16 14 -32 14q-29 0 -93 -117l-71 63q81 163 165 163q21 0 37 -10l2 -1q229 98 363 245h-524v95h287q-15 26 -31.5 50.5t-33.5 47.5z" />
    <glyph glyph-name="cid1300" unicode="&#x4e50;" 
d="M80 346q23 107 39 200.5t26 174.5q16 -4 35 -5.5t38 -2.5q308 2 494 59l45 -78q-104 -28 -237.5 -43t-301.5 -17q-9 -55 -18 -104.5t-18 -93.5h222v160h94v-160h313v-90h-313v-289q0 -102 -96 -102h-120l-20 91q56 -7 108 -7q34 0 34 42v265h-324zM272 255
q-63 -152 -150 -268l-80 59q85 101 149 248zM680 299q39 -62 74.5 -128.5t72.5 -140.5l-88 -45q-64 153 -141 275z" />
    <glyph glyph-name="cid1301" unicode="&#x4e52;" 
d="M272 270h256v193h-256v-193zM179 700q150 12 270 29.5t215 43.5l47 -82q-97 -22 -206.5 -38t-232.5 -26v-75h497v-89h-148v-193h212v-88h-520l52 -48q-100 -106 -244 -186l-61 77q129 65 222 157h-229v88h126v430z" />
    <glyph glyph-name="cid1302" unicode="&#x4e53;" 
d="M278 266h259v191h-259v-191zM184 702q157 10 283 26.5t224 39.5l48 -80q-105 -20 -218.5 -35t-242.5 -24v-83h500v-89h-149v-191h215v-91h-241q127 -83 215 -161l-71 -72q-81 86 -226 186l49 47h-523v91h137v436z" />
    <glyph glyph-name="cid1303" unicode="&#x4e54;" 
d="M321 547q15 23 27 45t24 45q-56 -2 -114.5 -3.5t-121.5 -1.5l-27 82q180 0 331.5 15t277.5 44l44 -77q-62 -17 -133.5 -29t-153.5 -22q-11 -26 -22.5 -50.5t-25.5 -47.5h399v-90h-203q37 -43 95.5 -83.5t137.5 -74.5l-62 -78q-99 57 -165 115v-386h-91v407h68
q-25 25 -46 49.5t-37 50.5h-154q-19 -27 -40.5 -51.5t-44.5 -47.5h72v-67q-6 -139 -59 -222q-53 -77 -168 -119l-48 77q106 41 143 98q36 65 40 166v49q-75 -70 -168 -122l-59 74q125 73 214 165h-192v90h262z" />
    <glyph glyph-name="cid1305" unicode="&#x4e58;" 
d="M646 245q-96 0 -96 100v165h91v-56q80 15 148 42l29 -77q-39 -14 -83 -24t-94 -16v-17q0 -40 31 -40h59q13 0 20 9q5 9 7 54l86 -26q-10 -85 -31 -99q-23 -15 -63 -15h-104zM397 618v46q-58 -3 -120.5 -4t-128.5 -1l-27 80q175 0 323 9.5t270 27.5l44 -78
q-58 -9 -125 -16t-143 -14v-50h347v-85h-347v-225q135 -141 360 -223l-52 -91q-176 77 -308 206v-249h-93v245q-65 -62 -140.5 -113t-163.5 -92l-59 86q240 97 363 228v228h-348v85h348zM332 510v-263h-92v31q-36 -9 -76.5 -17.5t-84.5 -16.5l-26 83q51 6 97.5 12t89.5 12
v45h-163v79h163v35h92z" />
    <glyph glyph-name="cid1306" unicode="&#x4e59;" 
d="M747 728v-82q-137 -96 -231.5 -166t-149.5 -117q-57 -46 -93 -82.5t-55 -63.5q-33 -52 -33 -85q0 -22 19 -39q23 -20 99 -20h346q57 0 80 37q24 34 24 158l89 -26q0 -159 -38 -207q-40 -48 -127 -48h-392q-111 0 -153 35q-49 45 -49 110q0 48 39 106q36 63 164 170
q55 48 128.5 104t165.5 125h-471v91h638z" />
    <glyph glyph-name="cid1308" unicode="&#x4e5d;" 
d="M404 770v-181h258v-493q0 -40 46 -40h23q26 0 33 38q4 56 4 122l87 -25q-5 -65 -9.5 -104t-9.5 -53q-16 -71 -105 -71h-37q-129 0 -129 119v415h-164q-13 -206 -77 -333q-70 -135 -231 -207l-55 85q158 77 213 193q45 104 58 262h-216v92h218v181h93z" />
    <glyph glyph-name="cid1309" unicode="&#x4e5e;" 
d="M313 760q-8 -22 -16.5 -41t-17.5 -39h508v-89h-552q-29 -47 -58.5 -88t-63.5 -75l-59 71q49 51 91 121t81 161zM699 499v-85q-160 -99 -261.5 -171.5t-147.5 -121.5q-25 -28 -31 -48q0 -19 18 -19h351q24 0 41 4.5t30 12.5q23 16 40 151l87 -34q-19 -157 -62 -187
q-44 -32 -128 -32h-356q-121 0 -121 88q0 55 74 127q49 50 128.5 106.5t191.5 123.5h-350v85h496z" />
    <glyph glyph-name="cid1310" unicode="&#x4e5f;" 
d="M506 776v-198l265 59q0 -150 -3.5 -240.5t-11.5 -121.5q-13 -71 -124 -71h-39l-24 86q23 -1 42.5 -1.5t37.5 -0.5q23 0 28 40q5 26 7 194l-178 -37v-320h-91v301l-161 -35v-305q0 -58 58 -58h376q44 0 64 17q18 18 24 124l85 -29q-11 -141 -41 -172q-33 -29 -115 -29
h-416q-127 0 -127 135v298l-130 -28v89l130 30v202h92v-183l161 35v219h91z" />
    <glyph glyph-name="cid1311" unicode="&#x4e60;" 
d="M589 287q-185 -116 -464 -207l-37 84q278 83 477 206zM231 570q101 -77 176 -156l-65 -65q-63 74 -177 158zM452 46q75 -4 151 -4q33 0 49 34q19 33 20 158q2 44 3.5 145t3.5 258h-568v91h662q-5 -235 -9.5 -373t-7.5 -184q-4 -120 -33 -166q-27 -45 -101 -45
q-29 -1 -64.5 -1t-79.5 -2z" />
    <glyph glyph-name="cid1312" unicode="&#x4e61;" 
d="M785 420q-30 -195 -177 -312q-126 -105 -454 -168l-40 94q147 24 251 59t170 79l34 30t31 31q-163 -22 -406 -38l-27 81q115 57 243 175q-64 -6 -126 -11.5t-125 -8.5l-23 79q148 116 255 271l92 -35q-90 -127 -211 -228q56 2 110.5 6t109.5 7q30 32 60.5 66.5t61.5 70.5
l91 -43q-101 -116 -190.5 -199t-169.5 -138q90 6 168 14.5t143 17.5q24 49 35 110z" />
    <glyph glyph-name="cid1313" unicode="&#x4e66;" 
d="M442 776v-146h260v-44l-17 -193h124q-2 -273 -47 -316q-19 -20 -55 -27q-16 -4 -33 -6.5t-33 -2.5h-57l-24 88q26 0 49.5 -0.5t46.5 -0.5q29 1 45 19q12 16 17 155h-276v-352h-94v352h-302v91h302v148h-250v89h250v146h94zM596 393l12 148h-166v-148h154zM660 774
q97 -46 177 -106l-50 -78q-42 37 -86.5 65t-86.5 49z" />
    <glyph glyph-name="cid1315" unicode="&#x4e70;" 
d="M145 497q49 -20 95 -43.5t88 -51.5l-49 -72q-43 33 -87 59t-91 44zM224 617q105 -38 189 -90l-48 -74q-89 63 -185 100zM540 603v-187q-2 -31 -6 -58t-9 -54h316v-90h-347q-3 -7 -6.5 -14t-7.5 -14q189 -79 346 -170l-65 -70q-81 48 -162 91.5t-166 79.5q-1 0 -1 -2
q-50 -52 -128 -92.5t-189 -67.5l-52 81q223 57 300 141q6 10 12.5 19.5t12.5 17.5h-329v90h371q15 54 18 112v187h92zM779 728v-58q-18 -76 -50 -155l-86 25q12 23 22 48.5t19 54.5h-594v85h689z" />
    <glyph glyph-name="cid1316" unicode="&#x4e71;" 
d="M218 530v108q-33 -2 -68 -3t-71 -1l-27 81q108 0 199.5 11.5t167.5 32.5l45 -77q-33 -11 -71 -19t-81 -14v-119h170v-89h-170v-121h145v-354h-92v38h-198v-38h-90v354h141v121h-178v89h178zM365 92v143h-198v-143h198zM614 -33q-97 0 -97 105v687h92v-668q0 -40 32 -40
h82q21 0 32 21q10 23 14 136l88 -28q-13 -158 -37 -186q-28 -27 -78 -27h-128z" />
    <glyph glyph-name="cid1317" unicode="&#x4e73;" 
d="M614 -33q-86 0 -86 105v687h92v-667q0 -41 22 -41h82q20 0 31 21q10 23 14 136l88 -28q-10 -155 -36 -186q-29 -27 -79 -27h-128zM479 188q-35 -10 -71 -17.5t-75 -14.5v-113q0 -86 -89 -86h-97l-25 88q27 -3 48.5 -5t37.5 -2q33 0 33 31v70q-48 -8 -97 -15t-101 -13
l-13 89q55 8 108 14.5t103 15.5v88q29 22 87 62h-259v83h390v-67q-26 -23 -58 -48.5t-68 -55.5v-46q39 7 75.5 15t70.5 16v-89zM494 644q-14 -47 -30 -88t-37 -77l-79 28q18 33 33.5 72.5t29.5 88.5zM274 644q14 -33 24.5 -63t18.5 -59l-77 -29q-9 33 -20.5 65t-25.5 65z
M119 635q13 -29 25 -62t23 -70l-82 -21q-8 33 -20 64.5t-27 61.5zM494 696q-162 -39 -436 -39l-25 75q246 0 417 37z" />
    <glyph glyph-name="cid1318" unicode="&#x4e7e;" 
d="M191 697v73h94v-73h148v-84h-148v-52h129v-339h-129v-57h151v-82h-151v-133h-94v133h-158v82h158v57h-125v339h125v52h-144v84h144zM328 356h-176v-58h176v58zM328 428v56h-176v-56h176zM542 578q-16 -28 -31.5 -53t-32.5 -48l-59 72q60 77 109 223l87 -18
q-9 -25 -16.5 -46.5t-16.5 -43.5h259v-86h-299zM797 471v-81q-53 -56 -91 -100t-63 -77q-26 -31 -44 -55.5t-27 -40.5q-18 -31 -18 -47q0 -22 30 -22h136q23 0 33 21q4 10 7 42.5t6 90.5l82 -28q-11 -150 -38 -180q-28 -27 -90 -29h-155q-107 0 -107 88q0 29 20 65
q10 20 30 49.5t50 70.5q23 33 52.5 69.5t64.5 75.5h-204v88h326z" />
    <glyph glyph-name="cid15042" unicode="&#x4e82;" 
d="M274 356l-25 -46q18 3 36 5t35 5l-8 12t-6 12l36 12h-68zM344 274q-30 -6 -74 -11t-103 -11l-8 53q15 1 30 22q4 6 8 13t8 16h-58v-401h-87v475h143q-14 10 -27.5 19t-27.5 19l35 33h-104v65h26q-7 17 -16 32t-19 29l69 26q12 -19 22.5 -40.5t21.5 -46.5h59
q-15 45 -34 78l78 13q16 -37 32 -91h40q16 26 29 52t26 53l70 -26q-12 -21 -22.5 -41t-22.5 -38h60v-58q-23 -21 -47.5 -39.5t-50.5 -38.5h106v-370q0 -101 -81 -101h-81l-23 81h9l-29 22q-23 -16 -48 -30.5t-54 -26.5l-42 55q48 19 85 44q-15 10 -32 20t-35 20l35 34h-42
v56h229v-46q-19 -49 -51 -83q28 -20 54 -41l-26 -26l26 -1q23 0 23 42v277h-61q28 -41 48 -85l-53 -24zM294 445q20 11 43 25.5t47 30.5h-170q23 -15 42.5 -29t37.5 -27zM289 141q20 21 30 37h-92q15 -8 31.5 -18t30.5 -19zM502 702q-163 -42 -433 -42l-24 72q244 0 417 36z
M645 -35q-94 0 -94 104v692h94v-676q0 -35 24 -35h64q12 0 20 15q6 16 12 146l91 -28q-14 -162 -32 -189q-23 -26 -66 -29h-113z" />
    <glyph glyph-name="cid1319" unicode="&#x4e86;" 
d="M411 479q62 36 121.5 75.5t117.5 85.5h-560v89h688v-89q-124 -112 -275 -209v-374q0 -99 -95 -99q-42 0 -77.5 1.5t-65.5 3.5l-24 91q34 -4 68.5 -6.5t72.5 -2.5q29 0 29 28v406z" />
    <glyph glyph-name="cid1320" unicode="&#x4e88;" 
d="M318 638q39 -26 73 -51.5t67 -52.5q36 27 69 58t64 66h-438v87h556v-74q-43 -58 -89.5 -105t-97.5 -87l8 -9h283v-80q-66 -101 -156 -179l-73 66q56 40 115 104h-201v-327q0 -99 -91 -99h-130l-22 91q63 -7 119 -7q30 0 30 38v304h-335v89h338q-33 26 -71 52.5t-81 54.5z
" />
    <glyph glyph-name="cid1321" unicode="&#x4e89;" 
d="M475 149v-79q0 -112 -109 -112h-123l-18 88q28 -3 55 -4.5t53 -1.5q52 0 52 53v56h-228v88h228v76h-336v84h336v74h-213v51q-14 -12 -28 -23t-28 -19l-57 69q126 81 221 230l92 -20q-9 -15 -17.5 -28.5t-17.5 -26.5h325v-69q-24 -23 -48.5 -42t-48.5 -36h167v-160h107
v-84h-107v-164h-257zM435 557q23 16 45.5 31t46.5 34h-253q-15 -19 -30.5 -34t-31.5 -31h223zM475 397h166v74h-166v-74zM475 237h166v76h-166v-76z" />
    <glyph glyph-name="cid1322" unicode="&#x4e8b;" 
d="M397 613v40h-337v79h337v42h93v-42h336v-79h-336v-40h262v-186h-262v-42h273v-115h87v-73h-87v-115h-273v-42q0 -85 -93 -85h-109l-20 86q26 -2 50.5 -3.5t47.5 -1.5q31 0 31 26v20h-281v72h281v43h-361v73h361v45h-281v70h281v42h-262v186h262zM660 545h-170v-50h170v50
zM397 545h-170v-50h170v50zM490 270h186v45h-186v-45zM490 197v-43h186v43h-186z" />
    <glyph glyph-name="cid1323" unicode="&#x4e8c;" 
d="M125 684h637v-92h-637v92zM43 126h800v-92h-800v92z" />
    <glyph glyph-name="cid1325" unicode="&#x4e8e;" 
d="M778 744v-90h-280v-206h340v-92h-340v-298q0 -97 -102 -97h-142l-19 90q33 -3 66 -4t64 -1q39 0 39 36v274h-356v92h356v206h-301v90h675z" />
    <glyph glyph-name="cid1326" unicode="&#x4e8f;" 
d="M756 732v-89h-624v89h624zM835 534v-88h-496l-37 -104h428q-8 -136 -23 -218t-35 -110q-42 -54 -173 -54q-22 1 -47 1.5t-53 3.5l-25 85q35 -4 65.5 -6.5t59.5 -2.5q70 0 96 29q23 26 36 188h-447l62 188h-194v88h783z" />
    <glyph glyph-name="cid1327" unicode="&#x4e91;" 
d="M766 729v-89h-638v89h638zM847 485v-92h-420q-55 -112 -103 -191t-92 -129q105 9 210 20t209 25q-21 37 -43 74t-46 75l74 47q61 -90 107 -167.5t80 -143.5l-84 -59q-9 23 -20 45t-23 45q-264 -38 -577 -59l-24 94q7 2 12.5 4.5t8.5 5.5q80 56 208 314h-281v92h804z" />
    <glyph glyph-name="cid1328" unicode="&#x4e92;" 
d="M60 743h764v-90h-458l-30 -119h376l-67 -464h199v-90h-800v90h512l18 124h-418l118 459h-214v90zM588 279l27 170h-302l-43 -170h318z" />
    <glyph glyph-name="cid1330" unicode="&#x4e94;" 
d="M125 456h195l39 184h-280v89h730v-89h-357l-39 -184h293v-380h136v-91h-796v91h194l61 290h-176v90zM333 76h279v290h-217z" />
    <glyph glyph-name="cid1331" unicode="&#x4e95;" 
d="M246 613v155h94v-155h208v157h94v-157h166v-90h-166v-185h204v-91h-204v-291h-94v291h-228q-14 -67 -37 -121q-48 -109 -160 -167l-56 87q103 58 139 150q9 25 16 51h-180v91h196q3 25 4.5 51t3.5 54v80h-167v90h167zM340 443q-1 -54 -7 -105h215v185h-208v-80z" />
    <glyph glyph-name="cid1333" unicode="&#x4e9a;" 
d="M812 727v-89h-229v-565h256v-90h-792v90h254v565h-227v89h738zM492 73v565h-100v-565h100zM796 510q-45 -196 -117 -349l-80 29q66 135 113 343zM167 526q64 -145 113 -338l-81 -22q-23 87 -50.5 169.5t-61.5 162.5z" />
    <glyph glyph-name="cid1334" unicode="&#x4e9b;" 
d="M341 768v-139h119v-87h-119v-132q31 6 61.5 12t61.5 13v-88q-97 -20 -197 -36.5t-210 -31.5l-21 90l63 4v308h90v-297q16 4 31 6t31 4v374h90zM831 629q-107 -54 -249 -95v-110q0 -39 23 -39h102q21 0 33 16q14 16 17 91l86 -29q-11 -116 -39 -141q-26 -22 -81 -22h-147
q-85 0 -85 104v364h91v-148q54 16 103 37t93 46zM736 241v-90h-587v90h587zM834 71v-90h-781v90h781z" />
    <glyph glyph-name="cid15054" unicode="&#x4e9e;" 
d="M60 744h766v-88h-230v-123h190v-323h-191v-139h244v-88h-790v88h244v138h-192v324h192v123h-233v88zM502 71v227h193v148h-192v210h-118v-210h-192v-148h192v-227h117z" />
    <glyph glyph-name="cid1335" unicode="&#x4e9f;" 
d="M332 535v-314h-248v314h248zM249 453h-77v-149h77v149zM839 69v-88h-790v88h790zM571 437q25 -19 48 -37t45 -37q32 49 50 106h-175v80h268v-66q-25 -100 -74 -181q28 -25 54 -51t50 -52l-67 -67q-19 25 -41.5 50t-49.5 50q-51 -58 -116 -100l-60 78q61 36 109 85
q-23 22 -48.5 43t-51.5 42zM717 744v-87q-52 -32 -109.5 -62.5t-120.5 -60.5v-346q0 -91 -91 -91h-99l-22 87q19 -1 42 -1.5t48 -0.5q28 0 28 37v364q57 23 102.5 40.5t78.5 33.5h-420v87h563z" />
    <glyph glyph-name="cid1337" unicode="&#x4ea1;" 
d="M411 627q-16 29 -34.5 56t-40.5 52l90 34q46 -60 85 -142h327v-93h-587v-457h551v-93h-646v550h-109v93h364z" />
    <glyph glyph-name="cid1339" unicode="&#x4ea4;" 
d="M395 677q-11 23 -23 44t-26 40l104 18q26 -50 48 -102h341v-89h-791v89h347zM593 583q147 -114 248 -226l-68 -69q-44 55 -104.5 113t-139.5 121zM664 377q-58 -111 -146 -200q69 -45 152 -80.5t183 -59.5l-59 -87q-202 56 -347 164q-147 -113 -351 -166l-58 84
q198 49 334 144q-43 42 -80.5 89t-66.5 101l80 44q53 -99 138 -174q82 78 136 180zM356 523q-51 -66 -113.5 -123t-138.5 -107l-58 78q72 46 132.5 98t109.5 112z" />
    <glyph glyph-name="cid1340" unicode="&#x4ea5;" 
d="M560 139q-174 -132 -428 -190l-56 83q447 97 616 388l85 -37q-64 -107 -149 -187q117 -88 199 -175l-72 -73q-73 92 -195 191zM672 531q-164 -301 -550 -397l-56 84q188 42 319 130q-56 -5 -113.5 -10t-118.5 -8l-21 87q5 2 11 4.5t9 4.5q56 33 148 172h-250v90h345
q-9 20 -19.5 38.5t-21.5 34.5l105 18q19 -42 40 -91h338v-90h-430q-81 -121 -140 -179q115 7 226 21q28 30 52 61.5t43 66.5z" />
    <glyph glyph-name="cid1341" unicode="&#x4ea6;" 
d="M236 468q-22 -97 -51 -178t-69 -151l-83 52q40 70 68 143t45 152zM723 493q73 -150 127 -321l-88 -39q-30 93 -61.5 175.5t-66.5 153.5zM453 770q11 -23 21 -48t19 -54h337v-90h-236v-514q0 -105 -102 -105h-96l-20 88q23 -2 44 -4t40 -2q42 0 42 46v491h-113v-122
q-3 -345 -208 -505l-70 61q185 139 186 444v122h-239v90h334q-18 44 -40 88z" />
    <glyph glyph-name="cid1342" unicode="&#x4ea7;" 
d="M459 783q9 -21 17.5 -44.5t16.5 -49.5h306v-88h-147q-13 -57 -35 -107h201v-90h-627v-115q-6 -209 -95 -335l-70 62q70 99 72 273v205h178l-30 107h-156v88h308q-9 22 -18.5 40.5t-19.5 37.5zM527 494q22 50 36 107h-226l30 -107h160z" />
    <glyph glyph-name="cid1343" unicode="&#x4ea8;" 
d="M726 577v-200h-567v200h567zM636 500h-386v-48h386v48zM460 779q12 -32 28 -75h344v-87h-776v87h333q-7 16 -15 30.5t-17 28.5zM410 189q28 10 67 24.5t91 31.5h-470v81h668v-63q-57 -25 -123 -52.5t-142 -58.5v-110q0 -87 -88 -87h-124l-25 85q37 -2 64.5 -3t47.5 -1
q34 0 34 33v120z" />
    <glyph glyph-name="cid1344" unicode="&#x4ea9;" 
d="M770 -50h-90v44h-470v-44h-89v562h649v-562zM400 82v129h-190v-129h190zM680 82v129h-189v-129h189zM400 295v133h-190v-133h190zM491 295h189v133h-189v-133zM400 672q-9 20 -18.5 38.5t-22.5 35.5l88 33q13 -23 25.5 -49.5t22.5 -57.5h343v-87h-790v87h352z" />
    <glyph glyph-name="cid1345" unicode="&#x4eab;" 
d="M722 589v-197h-557v197h557zM632 510h-377v-40h377v40zM449 774q18 -29 34 -65h349v-87h-777v87h321q-16 25 -34 48zM413 191v22l157 62h-448v82h633v-65q-54 -23 -116 -48t-133 -53h345v-83h-347v-60q0 -97 -94 -97h-123l-25 83q35 -3 63.5 -4t47.5 -1q40 0 40 45v34
h-378v83h378z" />
    <glyph glyph-name="cid1346" unicode="&#x4eac;" 
d="M740 541v-276h-247v-215q0 -91 -94 -91h-96l-21 88q23 -2 44 -4t41 -2q33 0 33 31v193h-252v276h592zM649 451h-410v-97h410v97zM450 774q10 -19 18 -41.5t16 -46.5h355v-86h-792v86h341q-8 19 -16 37.5t-17 35.5zM649 228q116 -97 194 -189l-68 -69q-33 47 -79.5 96
t-108.5 102zM301 171q-41 -59 -91 -108.5t-110 -93.5l-58 77q114 75 193 182z" />
    <glyph glyph-name="cid1347" unicode="&#x4ead;" 
d="M705 246v-75h-213v-124q0 -90 -97 -90h-89l-21 84q22 -2 41 -3.5t39 -1.5q33 0 33 33v102h-217v75h524zM393 704q-6 16 -12.5 30.5t-15.5 28.5l97 16q11 -32 25 -75h331v-79h-749v79h324zM708 589v-182h-529v182h529zM617 519h-347v-40h347v40zM824 199h-93v93h-575v-95
h-93v170h761v-168z" />
    <glyph glyph-name="cid1348" unicode="&#x4eae;" 
d="M621 247v-183q0 -25 30 -25h70q13 0 22 8q7 5 16 97l83 -27q-11 -101 -30 -127q-16 -30 -77 -30h-108q-98 0 -98 87v121h-173v-4q-4 -175 -256 -218l-53 76q217 31 217 153v72h357zM392 710q-8 16 -17.5 30t-20.5 27l102 16q9 -16 17.5 -35t17.5 -38h335v-80h-766v80h332
zM699 592v-185h-512v185h512zM608 520h-330v-41h330v41zM813 199h-91v91h-559v-94h-91v174h741v-171z" />
    <glyph glyph-name="cid1349" unicode="&#x4eb2;" 
d="M589 210q137 -65 252 -156l-51 -76q-121 104 -247 163zM339 145q-106 -98 -258 -165l-39 83q144 56 240 148zM465 778q7 -20 15.5 -43t14.5 -47h281v-85h-664v85h288q-9 20 -17 38.5t-17 34.5zM261 474q-21 45 -47 88l87 34q29 -49 55 -122h190q14 29 26 58.5t23 59.5
l89 -30q-10 -24 -21 -46t-22 -42h177v-86h-324v-76h295v-86h-295v-172q0 -103 -98 -103h-100l-20 89l44 -4t44 -2q38 0 38 43v149h-304v86h304v76h-332v86h191z" />
    <glyph glyph-name="cid1350" unicode="&#x4eb3;" 
d="M812 128l-344 -28v-40q0 -22 26 -22h244q18 0 31 8q12 11 16 59l75 -25q-10 -85 -35 -100q-24 -14 -71 -14h-283q-95 0 -95 75v52l-304 -24l-12 75l316 24v50q-40 -2 -80.5 -4.5t-81.5 -3.5l-25 68q146 6 261 16.5t202 27.5l40 -69q-54 -9 -110 -16t-114 -13v-49l332 26z
M389 715q-15 30 -29 48l105 19q14 -32 26 -67h333v-74h-761v74h326zM720 609v-166h-540v166h540zM631 542h-363v-34h363v34zM822 242h-90v98h-578v-114h-88v186h756v-170z" />
    <glyph glyph-name="cid1351" unicode="&#x4eb5;" 
d="M391 721q-12 24 -26 42l91 16q6 -13 13 -27.5t14 -30.5h358v-80h-795v80h345zM206 578v47h84v-47h103v-79h-103v-51l90 15v-72l-90 -17v-57q0 -83 -86 -83h-86l-19 80q19 -3 38.5 -4.5t37.5 -1.5q31 0 31 30v22q-31 -3 -62 -7.5t-63 -7.5l-20 77q38 2 73.5 5.5t71.5 8.5
v63h-133v79h133zM434 470q18 -8 35.5 -14.5t32.5 -12.5q10 28 13 56h-92v79h94v48h85v-48h146v-168q3 -82 18 -82q13 0 24 80l66 -34q-6 -36 -14 -61t-19 -42q-27 -27 -60 -27q-39 0 -63 34q-25 34 -25 132v89h-75q-4 -48 -20 -92q24 -12 46 -24t43 -25l-44 -68
q-21 13 -41.5 25.5t-41.5 23.5q-39 -52 -108 -92l-64 56q31 15 54.5 33.5t42.5 40.5q-20 8 -38.5 15.5t-37.5 13.5zM432 228q-31 -26 -60.5 -47t-59.5 -39v-90q45 10 87.5 22.5t82.5 25.5l14 -76q-121 -37 -286 -69l-17 67q37 14 37 39v39q-63 -29 -152 -58l-47 78
q101 22 193 66q36 16 70.5 38t67.5 47zM758 214q-32 -40 -62 -62q-10 -5 -19 -12t-22 -14q85 -58 202 -89l-52 -78q-243 76 -348 275l70 40q14 -27 31 -51.5t39 -46.5q10 7 20.5 13.5t21.5 12.5q12 14 24.5 27t24.5 29z" />
    <glyph glyph-name="cid1352" unicode="&#x4eba;" 
d="M487 770q0 -58 -2 -108t-5 -90q77 -349 380 -535l-62 -82q-125 84 -212 195t-139 253q-89 -271 -365 -449l-57 83q355 211 367 595v138h95z" />
    <glyph glyph-name="cid1354" unicode="&#x4ebf;" 
d="M133 412q-19 -22 -38 -43.5t-40 -43.5l-30 98q134 147 201 356l86 -42q-17 -49 -38 -96t-47 -92v-599h-94v462zM797 696v-81q-187 -181 -261 -270q-77 -87 -101 -139q-23 -47 -23 -81q0 -25 11 -40q11 -20 55 -20h230q35 0 50 31q12 27 12 133l89 -28q0 -136 -28 -180
q-28 -42 -93 -42h-277q-77 0 -108 35q-35 46 -35 111q0 43 26 101q13 30 42 70.5t73 92.5q36 44 86 98t112 119h-321v90h461z" />
    <glyph glyph-name="cid1355" unicode="&#x4ec0;" 
d="M140 423q-18 -27 -40 -50.5t-45 -47.5l-30 97q134 151 200 357l86 -42q-16 -46 -34.5 -90t-43.5 -87v-610h-93v473zM607 770v-278h242v-93h-242v-448h-95v448h-223v93h223v278h95z" />
    <glyph glyph-name="cid1356" unicode="&#x4ec1;" 
d="M801 638v-89h-477v89h477zM849 125v-89h-573v89h573zM134 414q-19 -23 -37.5 -45t-39.5 -44l-31 97q132 150 196 357l87 -41q-16 -49 -36 -95t-45 -90v-598h-94v459z" />
    <glyph glyph-name="cid1360" unicode="&#x4ec5;" 
d="M298 739q-28 -94 -72 -177v-612h-94v466q-19 -23 -38.5 -45.5t-38.5 -45.5l-30 98q126 152 187 357zM796 -51q-127 90 -215 195q-51 -59 -109 -108t-127 -88l-62 77q142 75 239 196q-129 185 -152 414h-50v89h474v-82q-43 -248 -158 -424q44 -54 100 -102.5t124 -93.5z
M575 298q44 72 75.5 156t48.5 181h-240q18 -184 116 -337z" />
    <glyph glyph-name="cid1362" unicode="&#x4ec7;" 
d="M310 731q-16 -51 -37.5 -97.5t-47.5 -91.5v-590h-93v459q-19 -22 -38.5 -43.5t-38.5 -42.5l-30 95q136 148 202 350zM502 763v-174h200v-501q0 -41 32 -41h8q15 0 19 29q7 53 7 115l87 -26q-6 -59 -11.5 -95t-10.5 -52q-17 -56 -90 -56h-22q-111 0 -111 112v426h-109
q-10 -372 -183 -545l-72 63q158 155 166 482h-115v89h115v174h90z" />
    <glyph glyph-name="cid1364" unicode="&#x4eca;" 
d="M372 551q58 -24 109 -52.5t99 -62.5l-51 -78q-50 38 -102 68t-106 51zM762 345v-71q-79 -215 -342 -325l-63 81q214 82 295 229h-526v86h636zM477 774q165 -182 384 -288l-48 -85q-110 55 -201 126t-168 160q-138 -166 -368 -287l-49 86q118 59 212.5 130.5t172.5 157.5
h65z" />
    <glyph glyph-name="cid1365" unicode="&#x4ecb;" 
d="M634 474v-516h-92v516h92zM337 472v-167q-3 -245 -154 -358l-71 61q130 92 134 297v167h91zM476 767q162 -182 377 -290l-48 -83q-214 111 -362 286q-134 -169 -361 -295l-46 86q225 118 375 296h65z" />
    <glyph glyph-name="cid1366" unicode="&#x4ecd;" 
d="M294 650v90h444v-44q-9 -60 -20 -119t-26 -121h141v-40q-5 -122 -10 -202t-12 -119q-13 -76 -43 -105q-33 -30 -96 -30h-103l-28 90q30 -3 55.5 -4t48.5 -1q42 0 60 18q16 22 23 77q5 53 14 236h-159q19 72 33 140.5t25 133.5h-150v-147q-4 -372 -186 -545l-77 67
q167 148 170 478v147h-104zM284 742q-13 -44 -29 -86.5t-36 -81.5v-624h-91v469q-34 -49 -73 -94l-30 100q116 150 177 356z" />
    <glyph glyph-name="cid1367" unicode="&#x4ece;" 
d="M309 766q0 -102 -6 -190.5t-15 -163.5q49 -53 90.5 -104.5t77.5 -101.5l-71 -72q-46 83 -115 168q-43 -207 -178 -344l-67 79q62 66 100.5 144.5t58.5 172.5q29 157 31 412h94zM655 767q0 -67 -2 -128t-7 -117q59 -309 215 -484l-69 -80q-56 72 -99 160t-76 190
q-45 -211 -190 -354l-64 78q127 131 166 321q17 80 25 182.5t8 231.5h93z" />
    <glyph glyph-name="cid1368" unicode="&#x4ed1;" 
d="M477 768q166 -205 382 -323l-49 -88q-215 127 -367 327q-88 -122 -214 -224h65v-171q194 44 367 127l56 -76q-113 -47 -217.5 -81.5t-205.5 -57.5v-72q0 -78 61 -78h236q26 0 54 16q27 17 37 143l88 -28q-20 -158 -51 -187q-42 -27 -104 -28h-285q-127 0 -127 147v326
q-30 -23 -61.5 -45t-64.5 -41l-47 87q230 132 380 327h67z" />
    <glyph glyph-name="cid1369" unicode="&#x4ed3;" 
d="M476 767q82 -95 176 -167.5t202 -127.5l-46 -83q-214 112 -365 294q-138 -172 -366 -295l-47 83q228 118 381 296h65zM303 378v-278q0 -49 45 -49h241q75 0 94 26q16 22 28 107l86 -28q-16 -139 -50 -165q-36 -25 -130 -25h-311q-97 0 -97 99v397h462v-213
q-3 -92 -85 -98q-67 0 -125 4l-25 87q33 -2 61 -4t51 -2q29 0 29 45v97h-274z" />
    <glyph glyph-name="cid1370" unicode="&#x4ed4;" 
d="M535 408v118q39 28 76 62t73 73h-331v84h437v-84q-36 -46 -76.5 -88t-85.5 -81v-84h229v-91h-229v-256q0 -106 -102 -106h-100l-22 84q19 -1 40.5 -1.5t44.5 -0.5q46 0 46 53v227h-253v91h253zM132 410q-18 -21 -37 -42.5t-39 -42.5l-31 100q136 150 204 355l85 -41
q-35 -107 -89 -198v-590h-93v459z" />
    <glyph glyph-name="cid1371" unicode="&#x4ed5;" 
d="M312 733q-34 -100 -87 -191v-592h-93v461q-18 -22 -37 -43.5t-40 -42.5l-30 98q135 149 201 350zM510 523v249h93v-249h246v-90h-246v-362h213v-90h-515v90h209v362h-245v90h245z" />
    <glyph glyph-name="cid1372" unicode="&#x4ed6;" 
d="M297 740q-29 -94 -78 -185v-605h-91v464q-17 -23 -35.5 -45t-37.5 -44l-30 95q127 153 189 361zM426 -32q-112 0 -112 117v322l-68 -19v93l68 22v187h94v-159l102 32v210h90v-181l194 61q0 -299 -14 -362q-16 -63 -120 -63h-8l-27 89h54q16 0 19 28q1 12 2 57.5t1 124.5
l-101 -32v-348h-90v321l-102 -32v-340q0 -39 41 -39h261q28 0 41 16q10 15 15 123l88 -30q-11 -140 -34 -170q-28 -28 -94 -28h-300z" />
    <glyph glyph-name="cid1374" unicode="&#x4ed8;" 
d="M310 739q-30 -91 -75 -175v-614h-94v475q-18 -25 -40.5 -50.5t-45.5 -49.5l-30 97q134 151 199 358zM634 589v179h94v-179h121v-90h-121v-443q0 -101 -98 -101h-132l-22 91q63 -7 122 -7q36 0 36 40v420h-317v90h317zM412 423q94 -115 150 -201l-79 -55q-56 92 -147 209z
" />
    <glyph glyph-name="cid1375" unicode="&#x4ed9;" 
d="M313 740q-18 -51 -39.5 -100.5t-48.5 -95.5v-594h-93v461q-18 -22 -36.5 -43.5t-38.5 -42.5l-32 100q136 152 202 357zM620 768v-674h110v514h94v-653h-94v50h-318v-50h-93v652h93v-513h115v674h93z" />
    <glyph glyph-name="cid1380" unicode="&#x4ee3;" 
d="M824 485l-283 -38q4 -33 7 -62.5t9 -54.5q31 -141 81 -212q45 -68 87 -72q29 4 45 158l80 -47q-19 -109 -48 -162q-26 -40 -71 -43q-65 0 -138 86q-78 94 -118 244q-16 63 -25 152l-183 -26l-13 88l189 26q-5 56 -7 118.5t-4 133.5h94q0 -68 1.5 -127.5t7.5 -112.5
l274 40zM135 412q-20 -21 -38.5 -43t-39.5 -44l-31 98q135 149 200 355l86 -42q-16 -49 -37 -95.5t-46 -89.5v-601h-94v462zM619 770q40 -32 72.5 -63.5t61.5 -65.5l-63 -63q-23 32 -55 66t-74 70z" />
    <glyph glyph-name="cid1381" unicode="&#x4ee4;" 
d="M380 565q47 -20 92 -44t85 -53l-46 -73q-86 63 -178 100zM293 211q43 -16 85.5 -33.5t83.5 -37.5q39 30 78.5 66.5t80.5 80.5h-482v86h599v-78q-42 -54 -90 -104t-102 -95q28 -14 55.5 -30t53.5 -34l-50 -80q-179 118 -363 185zM475 765q163 -177 381 -281l-46 -82
q-109 54 -200 122t-167 155q-136 -167 -364 -290l-46 83q228 117 379 293h63z" />
    <glyph glyph-name="cid1382" unicode="&#x4ee5;" 
d="M353 681q57 -71 99.5 -132.5t73.5 -113.5l-79 -55q-33 57 -75.5 120t-97.5 133zM642 216q-85 -147 -267 -256l-63 77q222 131 287 317q53 161 54 412h97q0 -256 -56 -430q-3 -9 -5.5 -16t-4.5 -16q50 -64 94 -130t80 -132l-72 -72q-54 115 -144 246zM74 125q29 25 29 68
v564h96v-585q47 19 92 42.5t93 52.5l26 -92q-145 -80 -305 -137z" />
    <glyph glyph-name="cid1384" unicode="&#x4eea;" 
d="M311 739q-17 -51 -38.5 -100t-47.5 -93v-596h-93v462q-18 -22 -37 -43.5t-39 -43.5l-31 100q134 151 200 355zM502 778q77 -110 118 -194l-74 -54q-22 45 -50.5 93t-63.5 104zM799 710q-22 -158 -66.5 -284.5t-112.5 -224.5q106 -107 241 -170l-57 -83q-70 35 -129 79.5
t-112 101.5q-103 -117 -246 -181l-53 84q138 62 235 172q-129 166 -203 404l80 45q63 -223 178 -375q119 179 156 450z" />
    <glyph glyph-name="cid1386" unicode="&#x4eec;" 
d="M642 -41l-25 87l84 -4q32 0 32 43v550h-201v89h294v-664q0 -101 -106 -101h-78zM424 772q58 -74 90 -132l-72 -51q-17 33 -38.5 67t-49.5 72zM313 740q-18 -51 -39.5 -100t-48.5 -96v-594h-93v462q-18 -22 -37 -43.5t-39 -43.5l-31 95q136 153 204 361zM397 622v-671h-91
v671h91z" />
    <glyph glyph-name="cid1387" unicode="&#x4ef0;" 
d="M266 148q25 13 25 48v500q56 16 101 34t78 39l52 -75q-27 -15 -63 -30.5t-83 -29.5v-450q33 10 63 21t60 23l16 -85q-48 -18 -103.5 -36.5t-121.5 -37.5zM126 424q-16 -24 -33 -47.5t-36 -46.5l-32 98q105 147 158 351l84 -40q-11 -41 -24.5 -80.5t-30.5 -77.5v-626h-86
v469zM668 61l-24 90l57 -4q30 0 30 38v448h-106v-678h-88v764h281v-554q0 -104 -87 -104h-63z" />
    <glyph glyph-name="cid1388" unicode="&#x4ef2;" 
d="M305 739q-17 -51 -38 -99t-47 -93v-597h-91v462q-17 -22 -36 -43.5t-38 -43.5l-30 100q65 75 112.5 164t79.5 192zM605 769v-147h219v-420h-91v39h-128v-290h-94v290h-126v-39h-91v420h217v147h94zM511 325v209h-126v-209h126zM733 325v209h-128v-209h128z" />
    <glyph glyph-name="cid1391" unicode="&#x4ef6;" 
d="M306 739q-34 -102 -88 -197v-591h-90v457q-18 -20 -35 -41t-37 -42l-31 100q129 150 193 356zM459 702q-6 -30 -11.5 -56.5t-12.5 -53.5h95v176h95v-176h191v-89h-191v-181h225v-90h-225v-277h-95v277h-246v90h246v181h-126q-34 -84 -80 -150l-59 76q76 117 103 284z" />
    <glyph glyph-name="cid1392" unicode="&#x4ef7;" 
d="M134 419q-36 -48 -77 -94l-31 100q122 149 180 351l87 -41q-14 -43 -29.5 -83.5t-35.5 -78.5v-616h-94v462zM699 458v-499h-91v499h91zM477 456v-131q-4 -260 -130 -378l-69 60q107 100 110 318v131h89zM583 767q79 -170 277 -297l-52 -79q-179 115 -267 288
q-99 -194 -254 -298l-51 79q171 117 263 307h84z" />
    <glyph glyph-name="cid1393" unicode="&#x4efb;" 
d="M816 669q-94 -32 -214 -46v-217h248v-90h-248v-245h203v-90h-497v90h203v245h-248v90h248v207q-40 -2 -81 -3t-86 -1l-28 85q134 0 247.5 13.5t206.5 39.5zM312 732q-17 -52 -39 -99t-48 -93v-590h-93v460q-18 -21 -37 -42.5t-39 -42.5l-31 100q134 147 201 348z" />
    <glyph glyph-name="cid1394" unicode="&#x4efd;" 
d="M339 345v73q-8 -10 -15.5 -17.5t-15.5 -16.5l-72 64q123 119 182 317l85 -36q-30 -91 -67 -163.5t-82 -129.5h393q0 -155 -3.5 -248.5t-9.5 -129.5q-13 -96 -119 -96q-15 0 -39 1.5t-57 3.5l-21 87q29 -2 53.5 -3t46.5 -1q43 0 50 54q3 16 5 76.5t3 164.5h-122
q-23 -136 -62 -220q-47 -94 -142 -170l-60 76q80 63 119 139q33 65 53 175h-103zM311 738q-33 -101 -85 -191v-597h-94v461q-19 -21 -38.5 -42.5t-38.5 -43.5l-30 99q136 150 202 354zM655 776q59 -188 202 -304l-63 -75q-77 65 -132 148.5t-85 186.5z" />
    <glyph glyph-name="cid1395" unicode="&#x4eff;" 
d="M307 738q-30 -90 -72 -170v-618h-94v476q-18 -25 -40 -50.5t-45 -50.5l-31 100q129 150 193 354zM291 554v90h231q-20 62 -47 119l99 16q12 -31 21.5 -64t20.5 -71h225v-90h-335v-50q0 -40 -3 -75h288q-4 -318 -26 -401q-27 -69 -112 -70q-30 0 -63 1t-72 3l-27 81
q89 -3 153 -3q36 2 44 42q6 23 7.5 87.5t3.5 172.5h-204q-30 -254 -159 -387l-73 63q149 150 152 486v50h-124z" />
    <glyph glyph-name="cid1396" unicode="&#x4f01;" 
d="M477 771q166 -180 384 -284l-51 -90q-214 111 -367 291q-138 -166 -370 -292l-50 90q231 115 387 285h67zM515 531v-185h232v-90h-232v-184h296v-90h-745v90h125v332h91v-332h140v459h93z" />
    <glyph glyph-name="cid1398" unicode="&#x4f0a;" 
d="M546 254q-16 -69 -41 -126q-60 -120 -189 -177l-51 79q54 23 93 59.5t65 85.5q19 34 29 79h-134v88h148q2 24 3 49t2 51h-189v87h189v103h-139v85h450v-188h69v-87h-69v-188h-236zM563 529h128v103h-128v-103zM563 442q-1 -26 -2 -51t-4 -49h134v100h-128zM134 419
q-36 -48 -77 -94l-31 100q122 148 180 353l87 -42q-27 -86 -65 -163v-623h-94v469z" />
    <glyph glyph-name="cid1399" unicode="&#x4f0d;" 
d="M447 453l24 187h-151v88h495v-88h-253l-24 -187h218v-383h90v-88h-584v88h137l37 293h-123v90h134zM668 70v293h-142l-36 -293h178zM313 739q-18 -51 -39.5 -100t-48.5 -97v-592h-93v461q-18 -22 -36.5 -43.5t-38.5 -42.5l-32 100q136 151 202 356z" />
    <glyph glyph-name="cid1401" unicode="&#x4f0f;" 
d="M139 422q-37 -51 -79 -97l-30 99q120 148 179 350l87 -39q-13 -44 -29 -84.5t-36 -78.5v-622h-92v472zM699 750q36 -38 62.5 -72t46.5 -64l-74 -50q-20 33 -46.5 68t-59.5 76zM594 769q0 -47 -0.5 -105t-1.5 -127h247v-89h-234q34 -138 97 -244.5t156 -182.5l-64 -71
q-176 156 -241 383q-74 -234 -244 -383l-65 71q206 186 245 427h-209v89h216q3 75 4.5 133.5t1.5 98.5h92z" />
    <glyph glyph-name="cid1402" unicode="&#x4f10;" 
d="M139 420q-18 -24 -38 -48t-41 -47l-30 100q121 149 179 349l87 -40q-13 -44 -29 -84.5t-36 -79.5v-620h-92v470zM823 510l-301 -49q6 -59 17 -104q8 -33 16 -60.5t17 -53.5q88 88 151 208l77 -39q-79 -152 -192 -255q8 -15 15 -25q51 -76 94 -78q25 5 52 146l84 -52
q-14 -37 -27 -68.5t-26 -57.5q-36 -63 -79 -63q-69 0 -140 87q-10 13 -20 26.5t-19 30.5q-103 -76 -226 -121l-51 76q136 47 237 126q-10 26 -20 54.5t-18 59.5q-11 33 -19 70t-13 80l-156 -25l-14 86l159 25q-10 107 -10 237h92q0 -61 2.5 -116t6.5 -105l297 48zM645 774
q23 -29 45.5 -61t44.5 -69l-80 -40q-40 76 -86 134z" />
    <glyph glyph-name="cid1403" unicode="&#x4f11;" 
d="M134 411q-36 -44 -76 -86l-29 100q131 149 196 353l87 -42q-33 -101 -85 -191v-595h-93v461zM494 603v163h90v-163h221v-89h-164q76 -200 217 -339l-61 -82q-122 149 -213 402v-544h-90v541q-82 -256 -205 -406l-54 88q65 64 115.5 148.5t88.5 191.5h-144v89h199z" />
    <glyph glyph-name="cid1404" unicode="&#x4f17;" 
d="M478 768q161 -194 370 -306l-49 -85q-208 117 -356 307q-69 -88 -159 -165t-203 -142l-47 86q225 122 375 305h69zM324 458q0 -48 -3 -90.5t-9 -80.5q41 -35 73.5 -69.5t60.5 -69.5l-66 -66q-34 52 -89 116q-1 -1 -1 -2q-39 -139 -194 -229l-58 70q129 77 167 183
q30 91 32 238h87zM636 466q0 -40 -2.5 -77.5t-5.5 -70.5q62 -176 222 -281l-60 -70q-118 87 -190 213q-39 -132 -168 -219l-58 69q111 79 145 190q15 48 21 109.5t7 136.5h89z" />
    <glyph glyph-name="cid1405" unicode="&#x4f18;" 
d="M139 419q-18 -23 -39 -46t-43 -46l-27 92q133 151 197 353l84 -39q-16 -47 -35.5 -91.5t-44.5 -87.5v-603h-92v468zM450 565v41v163h91v-163q0 -12 -0.5 -21.5t-0.5 -19.5h287v-89h-175v-407q0 -19 19 -19h64q10 0 21 14q9 16 13 125l82 -27q-14 -147 -30 -169
q-23 -26 -63 -27h-113q-81 0 -81 86v424h-29q-32 -347 -218 -524l-69 61q168 155 197 463h-168v89h173zM653 760q43 -27 77.5 -55.5t63.5 -59.5l-63 -62q-24 28 -58.5 57.5t-78.5 63.5z" />
    <glyph glyph-name="cid1406" unicode="&#x4f19;" 
d="M140 416q-17 -23 -36.5 -44.5t-39.5 -41.5l-31 98q134 149 197 348l86 -41q-33 -101 -86 -191v-590h-90v462zM437 606q-14 -156 -65 -279l-83 27q51 114 64 261zM608 766q0 -58 -1 -114t-2 -113q-1 -44 -7 -91q68 -287 259 -430l-63 -70q-84 71 -141.5 156t-87.5 186
q-67 -200 -241 -342l-62 70q252 194 252 512q1 62 1.5 121.5t0.5 114.5h92zM830 609q-17 -79 -36 -147t-43 -126l-84 30q44 105 79 266z" />
    <glyph glyph-name="cid1407" unicode="&#x4f1a;" 
d="M477 774q166 -183 384 -287l-51 -90q-39 20 -74.5 42.5t-69.5 46.5v-63h-442v67q-37 -26 -74 -48.5t-77 -45.5l-50 90q231 115 387 288h67zM636 509q-109 80 -193 182q-42 -50 -89 -95t-103 -87h385zM804 332v-90h-412q-57 -105 -130 -182q90 5 177 13t173 17
q-19 24 -40 48.5t-43 49.5l71 46q62 -66 108.5 -123t79.5 -105l-77 -54q-12 17 -23.5 35t-23.5 35q-104 -16 -231.5 -28.5t-283.5 -21.5l-25 81q32 7 48 24q66 79 113 165h-201v90h720z" />
    <glyph glyph-name="cid1409" unicode="&#x4f1e;" 
d="M397 261v304h93v-304h331v-90h-331v-215h-93v215h-331v90h331zM714 448q-15 -44 -35 -86t-46 -84l-73 39q24 42 44.5 84t35.5 84zM477 770q83 -79 178.5 -140.5t203.5 -106.5l-46 -82q-110 47 -201 108.5t-169 138.5q-137 -148 -369 -259l-45 85q230 101 381 256h67z
M250 471q18 -37 35 -77t32 -89l-77 -18q-28 84 -69 158z" />
    <glyph glyph-name="cid1410" unicode="&#x4f1f;" 
d="M499 679v90h95v-90h220v-87h-220v-84h183v-86h-183v-83h242q0 -208 -31 -254q-31 -44 -113 -47h-37l-24 83h38q50 1 62 24q12 21 15 107h-152v-301h-95v301h-224v87h224v83h-163v86h163v84h-197v87h197zM134 412q-20 -22 -38.5 -44t-39.5 -43l-31 100q134 148 200 348
l87 -40q-33 -101 -85 -191v-592h-93v462z" />
    <glyph glyph-name="cid1411" unicode="&#x4f20;" 
d="M134 412q-20 -22 -38.5 -44t-39.5 -43l-31 100q134 148 200 348l87 -40q-33 -101 -85 -191v-592h-93v462zM475 668l24 105l90 -8q-6 -26 -11 -50t-10 -47h252v-89h-275q-6 -19 -11.5 -38.5t-10.5 -37.5h333v-87h-362q-9 -23 -17 -45.5t-17 -42.5h349v-80
q-51 -81 -159 -164q26 -14 52 -29t50 -30l-52 -81q-162 109 -333 170l48 73q41 -15 80 -30.5t75 -33.5q44 31 78.5 60.5t60.5 59.5h-369q35 84 64 173h-137v87h165l10 38t11 38h-146v89h168z" />
    <glyph glyph-name="cid1413" unicode="&#x4f24;" 
d="M312 740q-34 -100 -86 -194v-596h-94v461q-19 -21 -38.5 -42.5t-38.5 -43.5l-30 100q135 153 200 357zM518 769q-6 -24 -14.5 -46.5t-16.5 -45.5h354v-90h-400q-25 -36 -53 -70.5t-60 -64.5l-61 77q120 104 160 252zM581 547v-114h242q0 -158 -4 -254t-9 -133
q-13 -86 -122 -86q-16 0 -46 1.5t-72 4.5l-21 79q72 -4 127 -4q41 0 47 45q3 20 5.5 83t3.5 173h-156q-28 -265 -228 -398l-72 67q177 107 207 331h-152v91h157v114h93z" />
    <glyph glyph-name="cid1415" unicode="&#x4f26;" 
d="M591 769q78 -157 270 -275l-53 -80q-176 109 -259 268q-102 -177 -258 -274l-52 82q175 107 267 279h85zM475 -34q-106 0 -106 105v376h95v-136q63 20 124 45.5t119 59.5l55 -76q-159 -80 -298 -121v-128q0 -37 39 -37h169q28 0 41 19q17 19 22 121l90 -30
q-14 -145 -45 -172q-29 -26 -92 -26h-213zM312 739q-34 -102 -86 -193v-596h-94v460q-19 -21 -37.5 -42.5t-38.5 -42.5l-31 100q134 151 200 356z" />
    <glyph glyph-name="cid1417" unicode="&#x4f2a;" 
d="M140 425q-17 -25 -38 -50.5t-43 -49.5l-29 98q62 75 106.5 162t73.5 189l85 -39q-12 -42 -27 -81t-35 -76v-628h-93v475zM367 757q30 -37 52.5 -68.5t39.5 -59.5l-70 -49q-17 30 -40 60.5t-52 67.5zM581 373q38 -48 66.5 -89.5t48.5 -77.5l-71 -50q-19 33 -41.5 69
t-49.5 75q-15 -53 -32 -101q-64 -157 -204 -240l-47 77q135 92 181 229q12 45 22.5 96t16.5 110h-171v90h178q2 22 3 42.5t2 42.5v125h89v-125q-2 -44 -3 -85h243q0 -400 -13 -492q-17 -107 -148 -107q-11 0 -28.5 1.5t-42.5 3.5l-20 81q44 -3 76 -3q66 0 76 65
q6 27 7.5 116t2.5 245h-160q-5 -33 -9 -63t-10 -59z" />
    <glyph glyph-name="cid1419" unicode="&#x4f2f;" 
d="M148 425q-22 -25 -44.5 -50.5t-46.5 -49.5l-31 100q138 149 204 349l87 -39q-31 -91 -78 -174v-611h-91v475zM809 -43h-91v37h-291v-37h-91v689h141q24 62 35 128l94 -12q-13 -62 -37 -116h240v-689zM718 84v197h-291v-197h291zM718 368v190h-291v-190h291z" />
    <glyph glyph-name="cid1420" unicode="&#x4f30;" 
d="M305 739q-34 -104 -89 -199v-590h-92v454q-17 -21 -34 -40t-34 -39l-31 99q131 154 191 356zM515 606v164h93v-164h245v-90h-245v-159h194v-406h-91v36h-291v-36h-92v406h187v159h-232v90h232zM711 74v195h-291v-195h291z" />
    <glyph glyph-name="cid1422" unicode="&#x4f34;" 
d="M400 719q39 -75 69 -174l-87 -23q-27 87 -69 168zM812 713q-14 -56 -34 -104.5t-43 -90.5l-84 29q43 76 72 189zM513 492v278h93v-278h222v-88h-222v-116h247v-91h-247v-246h-93v246h-241v91h241v116h-216v88h216zM301 738q-16 -51 -37 -99.5t-46 -92.5v-596h-91v458
q-35 -42 -70 -83l-32 100q128 150 190 355z" />
    <glyph glyph-name="cid1423" unicode="&#x4f36;" 
d="M505 552q31 -22 59.5 -46t54.5 -54l-54 -63q-54 61 -120 107zM301 737q-16 -51 -37 -99t-46 -93v-59q177 108 275 281h80q42 -80 111 -150.5t170 -130.5l-51 -74q-182 108 -268 265q-108 -173 -271 -269l-46 72v-530h-91v457q-17 -19 -34 -40t-36 -42l-32 100
q128 149 190 354zM765 380v-76q-78 -115 -179 -208q62 -40 113 -82l-66 -65q-54 46 -128.5 96.5t-174.5 105.5l62 60q33 -17 62.5 -34t58.5 -35q34 31 70.5 69t72.5 84h-368v85h477z" />
    <glyph glyph-name="cid1424" unicode="&#x4f38;" 
d="M393 277h125v100h-125v-100zM393 193v-38h-85v488h210v126h91v-126h217v-488h-90v38h-127v-242h-91v242h-125zM736 277v100h-127v-100h127zM736 558h-127v-99h127v99zM393 558v-99h125v99h-125zM309 738q-34 -102 -87 -196v-592h-92v460q-17 -21 -35 -42.5t-38 -42.5
l-32 100q133 150 197 355z" />
    <glyph glyph-name="cid1425" unicode="&#x4f3a;" 
d="M600 -44l-25 86l131 -2q26 0 26 44v573h-438v87h532v-686q0 -102 -102 -102h-124zM677 578v-84h-388v84h388zM644 420v-300h-328v300h328zM553 337h-146v-131h146v131zM283 739q-13 -43 -28 -84.5t-35 -79.5v-625h-91v469q-17 -24 -34.5 -47.5t-37.5 -46.5l-32 100
q115 151 172 355z" />
    <glyph glyph-name="cid1426" unicode="&#x4f3c;" 
d="M266 154q54 19 54 54v538h91v-548q27 12 54 25t53 28l24 -80q-58 -30 -120 -55t-127 -47zM136 419q-18 -24 -38 -47.5t-41 -46.5l-31 99q128 149 189 352l87 -41q-28 -91 -75 -178v-601h-91v463zM773 768q0 -260 -43 -437q-6 -25 -12.5 -47.5t-14.5 -45.5
q101 -130 158 -227l-74 -51q-24 46 -55 95t-67 101q-33 -60 -76 -111t-99 -95l-59 72q163 135 213 325q20 82 30 186t10 235h89zM515 668q58 -105 102 -223l-75 -35q-47 131 -99 233z" />
    <glyph glyph-name="cid1427" unicode="&#x4f3d;" 
d="M125 418q-31 -44 -68 -88l-32 98q57 76 98 163t69 188l84 -40q-13 -46 -29 -88.5t-37 -85.5v-614h-85v467zM546 617q0 -209 -3 -335.5t-8 -175.5q-11 -148 -99 -148q-10 0 -27 1t-41 3l-20 80q21 -1 40 -2t34 -1q25 0 31 109q4 26 5.5 121.5t3.5 260.5h-61v-46
q-1 -364 -114 -535l-70 62q96 148 100 473v46h-68v87h68v156h84v-156h145zM826 -19h-83v50h-69v-50h-85v678h237v-678zM743 112v466h-69v-466h69z" />
    <glyph glyph-name="cid1429" unicode="&#x4f46;" 
d="M789 721v-541h-437v541h437zM696 406h-253v-139h253v139zM696 493v142h-253v-142h253zM850 71v-90h-564v90h564zM313 739q-18 -51 -39.5 -100t-47.5 -95v-594h-93v461q-37 -43 -76 -86l-32 100q69 75 118.5 164t83.5 192z" />
    <glyph glyph-name="cid15128" unicode="&#x4f47;" 
d="M834 477h-86v113h-356v-113h-86v200h218q-10 23 -22 45.5t-26 43.5l97 15q25 -48 45 -104h216v-200zM407 -41l-20 91q31 -3 59.5 -5t55.5 -2q36 0 36 37v269h-241v91h547v-91h-212v-292q0 -98 -96 -98h-129zM313 739q-18 -51 -39.5 -100t-48.5 -97v-592h-93v461
q-18 -22 -36.5 -43.5t-38.5 -42.5l-32 100q136 151 202 356z" />
    <glyph glyph-name="cid15129" unicode="&#x4f48;" 
d="M289 738q-24 -84 -61 -162v-621h-89v471q-18 -25 -38 -50.5t-41 -50.5l-30 95q120 153 178 358zM460 656q9 27 17 55t15 58l84 -15q-5 -26 -12 -50.5t-15 -47.5h290v-88h-321q-15 -36 -31 -69t-35 -63h98v102h86v-102h179v-320q0 -80 -85 -80h-54l-21 79l50 -4
q26 0 26 23v222h-95v-404h-86v404h-89v-334h-85v304q-41 -49 -92 -93l-52 64q123 111 194 271h-138v88h172z" />
    <glyph glyph-name="cid1430" unicode="&#x4f4d;" 
d="M311 739q-16 -51 -37 -98t-47 -92v-599h-93v464q-20 -23 -38.5 -45t-39.5 -44l-31 100q134 151 200 356zM514 638q-10 31 -19.5 60t-19.5 56l98 15q18 -57 34 -131h225v-87h-543v87h225zM575 76q32 88 59.5 196t51.5 236l89 -23q-21 -115 -47.5 -217t-58.5 -192h186v-91
h-580v91h300zM419 500q24 -84 46.5 -179t40.5 -203l-85 -23q-17 100 -39.5 193.5t-48.5 184.5z" />
    <glyph glyph-name="cid1431" unicode="&#x4f4e;" 
d="M401 93q30 12 59 27l15 -80q-38 -14 -81.5 -30.5t-95.5 -31.5l-23 79q37 11 37 47v564q140 21 250 45t192 50l50 -74q-33 -10 -70.5 -21t-81.5 -22q1 -55 2.5 -102.5t5.5 -87.5h175v-88h-168q4 -50 11 -81q21 -119 46 -167q26 -51 35 -51q11 0 21 132l77 -40
q-27 -200 -82 -200q-44 0 -95 70q-49 69 -83 220q-5 26 -10 54.5t-10 62.5h-176v-275zM563 627q-37 -8 -77.5 -14.5t-84.5 -13.5v-143h169q-6 78 -7 171zM542 161q73 -92 110 -161l-69 -49q-19 37 -45 77.5t-59 86.5zM306 736q-17 -48 -36 -95t-45 -90v-601h-91v466
q-19 -23 -37.5 -45t-39.5 -44l-30 98q132 151 195 351z" />
    <glyph glyph-name="cid1432" unicode="&#x4f4f;" 
d="M514 630q-12 30 -23.5 59.5t-23.5 57.5l91 25q15 -39 26.5 -75t20.5 -67h225v-91h-224v-180h199v-88h-199v-202h243v-90h-579v90h243v202h-203v88h203v180h-230v91h231zM309 739q-35 -105 -87 -195v-594h-92v461q-36 -43 -75 -86l-31 100q66 75 116 163.5t82 191.5z" />
    <glyph glyph-name="cid1433" unicode="&#x4f50;" 
d="M467 634q17 62 31 133l90 -17q-6 -29 -12.5 -58t-13.5 -58h264v-88h-288q-14 -45 -29.5 -85.5t-32.5 -78.5h323v-88h-155v-233h199v-86h-527v86h237v233h-120q-59 -105 -135 -185l-60 75q131 148 203 362h-139v88h165zM312 739q-17 -52 -38.5 -101t-49.5 -96v-592h-91
v462q-37 -44 -77 -87l-31 100q134 151 200 355z" />
    <glyph glyph-name="cid1434" unicode="&#x4f51;" 
d="M312 731q-17 -52 -39 -99.5t-48 -93.5v-583h-93v453q-18 -20 -37 -41.5t-39 -42.5l-31 99q134 150 200 347zM794 -45h-91v43h-208v-43h-90v296q-53 -71 -116 -121l-47 84q71 62 124 146.5t87 192.5h-148v85h171q8 32 13.5 66t11.5 68l92 -11q-6 -32 -11.5 -62.5
t-11.5 -60.5h264v-85h-286q-13 -44 -28.5 -85t-32.5 -78h307v-435zM703 84v221h-208v-221h208z" />
    <glyph glyph-name="cid1435" unicode="&#x4f53;" 
d="M128 392q-16 -23 -33 -44.5t-37 -42.5l-28 92q65 83 112.5 176.5t76.5 204.5l84 -40q-33 -107 -84 -204v-583h-91v441zM498 633v140h91v-140h232v-88h-165q58 -201 200 -361l-60 -77q-74 94 -125.5 199t-81.5 223v-317h122v-89h-122v-172h-91v172h-119v89h119v316
q-33 -132 -87.5 -238.5t-128.5 -193.5l-49 79q133 147 194 370h-149v88h220z" />
    <glyph glyph-name="cid15135" unicode="&#x4f54;" 
d="M571 771v-148h280v-91h-280v-135h226v-447h-94v33h-302v-33h-92v447h168v374h94zM703 73v235h-302v-235h302zM330 740q-36 -105 -93 -200v-590h-92v460q-18 -21 -37 -42.5t-39 -42.5l-32 100q139 152 205 357z" />
    <glyph glyph-name="cid1436" unicode="&#x4f55;" 
d="M851 724v-89h-61v-583q0 -97 -94 -97h-150l-21 90q37 -3 71 -5t68 -2q32 0 32 38v559h-396v89h551zM614 529v-349h-302v349h302zM523 446h-122v-182h122v182zM297 740q-14 -49 -34 -95t-44 -91v-604h-91v462q-17 -21 -34.5 -43t-37.5 -44l-31 100q127 151 189 355z" />
    <glyph glyph-name="cid1439" unicode="&#x4f59;" 
d="M476 771q166 -147 384 -233l-49 -86q-33 16 -65.5 31t-61.5 32v-63h-186v-86h312v-91h-312v-211q0 -104 -106 -104h-107l-21 88q25 -2 49 -4t47 -2q47 0 47 45v188h-329v91h329v86h-204v63q-30 -16 -63.5 -31.5t-67.5 -32.5l-48 87q231 94 387 233h65zM640 540
q-111 68 -197 149q-42 -40 -91 -77t-106 -72h394zM318 200q-72 -136 -190 -209l-70 61q122 68 180 182zM649 248q61 -58 108 -107.5t80 -93.5l-78 -54q-33 47 -79 99t-104 110z" />
    <glyph glyph-name="cid1441" unicode="&#x4f5b;" 
d="M293 739q-31 -99 -80 -192v-597h-89v458q-17 -19 -32.5 -39t-32.5 -39l-29 95q120 151 178 354zM342 325h62q3 23 4.5 46.5t3.5 48.5h-57zM499 420q-1 -50 -7 -95h73v95h-66zM655 325h182q0 -181 -22 -233q-19 -51 -96 -52q-11 0 -20 0.5t-19 1.5l-23 84q14 -3 25.5 -4
t20.5 -1q33 0 40 34q3 16 5.5 38.5t2.5 51.5h-96v-294h-90v294h-85q-7 -34 -14.5 -64.5t-18.5 -57.5q-47 -112 -154 -176l-51 79q99 64 133 160q4 14 8 28.5t8 30.5h-142l29 254h134v93h-127v85h127v91h88v-91h65v91h90v-91h150v-257h-150v-95zM500 499h65v93h-65v-93z
M655 499h69v93h-69v-93z" />
    <glyph glyph-name="cid1442" unicode="&#x4f5c;" 
d="M442 565q-31 -64 -65 -117.5t-71 -99.5l-67 80q105 123 186 353l94 -22q-8 -26 -17.5 -51.5t-18.5 -50.5h356v-92h-277v-117h243v-91h-243v-121h243v-89h-243v-198h-95v616h-25zM132 412q-37 -41 -76 -82l-31 99q133 147 200 349l87 -42q-17 -50 -38.5 -98t-47.5 -92
v-597h-94v463z" />
    <glyph glyph-name="cid1446" unicode="&#x4f60;" 
d="M132 408q-18 -20 -36.5 -41t-38.5 -42l-32 99q136 150 204 355l85 -42q-17 -51 -39 -100.5t-50 -96.5v-589h-93v457zM739 419q64 -156 109 -331l-82 -36q-23 97 -51 181t-58 159zM423 585q-21 -50 -43 -93.5t-47 -84.5l-80 50q100 150 138 313l87 -18q-6 -19 -11.5 -39.5
t-10.5 -40.5h369v-59q-11 -39 -23.5 -78.5t-26.5 -78.5l-90 25q14 23 25 48.5t20 55.5h-307zM409 -42l-21 87q26 -3 52.5 -5t50.5 -2q31 0 31 34v451h90v-473q0 -92 -90 -92h-113zM460 385q-46 -178 -119 -318l-87 30q68 122 122 311z" />
    <glyph glyph-name="cid1447" unicode="&#x4f63;" 
d="M407 332q0 -9 -1 -17.5t-1 -16.5h117v137h-115v-103zM399 213q-18 -157 -82 -267l-73 65q70 123 73 315v417h508v-704q0 -84 -91 -84h-73l-21 84q17 -2 34.5 -3t33.5 -1q26 0 26 35v143h-124v-248h-88v248h-123zM734 435h-124v-137h124v137zM734 656h-124v-136h124v136z
M407 656v-136h115v136h-115zM127 412q-17 -22 -35 -43.5t-37 -43.5l-30 98q125 149 185 356l85 -40q-31 -102 -79 -188v-601h-89v462z" />
    <glyph glyph-name="cid1451" unicode="&#x4f69;" 
d="M662 606v-77h-104v-70h108v-344q0 -70 -56 -70h-52v-80h-71v423h-40v-350h-66v421h106v70h-107v77h282zM584 110q14 0 14 23v255h-40v-277zM766 743v-484q0 -65 1.5 -107.5t3.5 -61.5q5 -36 11 -36q9 0 18 129l64 -31q-16 -118 -32 -156q-19 -38 -42 -38q-51 0 -76 60
q-24 59 -24 241v405h-335v-297q-2 -124 -19 -226.5t-50 -185.5l-67 53q56 142 59 359v376h488zM266 739q-24 -89 -61 -172v-616h-82v468q-17 -23 -33.5 -46.5t-34.5 -46.5l-30 93q109 149 162 360z" />
    <glyph glyph-name="cid1455" unicode="&#x4f73;" 
d="M511 679v92h94v-92h189v-90h-189v-103h231v-90h-553v90h228v103h-185v90h185zM511 279v90h94v-90h194v-89h-194v-119h244v-90h-579v90h241v119h-192v89h192zM132 410q-19 -21 -37.5 -42.5t-38.5 -42.5l-31 100q134 151 200 355l87 -41q-17 -51 -38.5 -99.5t-47.5 -93.5
v-596h-94v460z" />
    <glyph glyph-name="cid15147" unicode="&#x4f75;" 
d="M330 737q-17 -44 -35 -85t-41 -80v-622h-91v486q-23 -29 -48 -57t-52 -54l-30 95q144 155 211 356zM444 773q44 -58 85 -132l-56 -28h149q24 39 44.5 78.5t40.5 81.5l87 -30q-37 -73 -80 -130h112v-86h-100v-183h125v-86h-125v-306h-87v306h-145q-27 -205 -151 -310
l-67 59q104 86 129 251h-119v86h126v183h-105v86h140q-17 35 -37.5 65.5t-41.5 58.5zM500 344h139v183h-139v-183z" />
    <glyph glyph-name="cid1459" unicode="&#x4f7c;" 
d="M511 668q-21 51 -47 95l93 17q13 -24 24 -52t22 -60h227v-90h-541v90h222zM490 526q-23 -44 -47.5 -83t-51.5 -73l68 21q17 -107 93 -189q65 82 89 194l85 -18q-28 -138 -105 -237q47 -33 104 -62t129 -53l-45 -79q-152 53 -247 130q-51 -43 -114.5 -75.5t-142.5 -51.5
l-51 80q74 16 133 44.5t106 65.5q-85 96 -113 217q-13 -15 -26.5 -30t-25.5 -29l-74 51q92 89 158 213zM682 567q115 -122 175 -213l-72 -49q-32 50 -75.5 104t-100.5 114zM130 415q-17 -23 -35 -45.5t-38 -44.5l-31 99q122 151 180 352l87 -41q-15 -46 -32.5 -89.5
t-38.5 -85.5v-610h-92v465z" />
    <glyph glyph-name="cid1461" unicode="&#x4f7f;" 
d="M522 691v80h93v-80h235v-88h-235v-64h203v-269h-209q-10 -105 -38 -165q125 -64 284 -71l-22 -88q-89 5 -167.5 27t-147.5 59q-72 -66 -222 -85l-40 83q120 10 180 56q-69 53 -127 123l71 49q50 -61 110 -103q18 44 27 115h-191v269h196v64h-219v88h219zM731 457h-116
v-104h116v104zM522 457h-109v-104h109v104zM125 407q-16 -22 -33.5 -41.5t-36.5 -40.5l-30 99q127 153 189 356l87 -41q-31 -99 -83 -193v-596h-93v457z" />
    <glyph glyph-name="cid1462" unicode="&#x4f83;" 
d="M570 377v-400h-85v400h85zM136 414q-18 -25 -37.5 -50t-39.5 -49l-30 100q60 78 104 167.5t74 196.5l82 -40q-12 -45 -27.5 -87t-34.5 -82v-612h-91v456zM747 737v-312h-430v312h430zM656 653h-248v-143h248v143zM713 -33q-37 0 -57 23q-20 24 -20 60v333h85v-313
q0 -23 22 -23h5q10 0 20 11q6 6 8.5 40.5t4.5 97.5l73 -24q-11 -153 -28 -179q-19 -26 -63 -26h-50zM415 295q0 -197 -104 -348l-69 59q89 126 89 289v84h84v-84z" />
    <glyph glyph-name="cid15157" unicode="&#x4f86;" 
d="M212 372q-20 -29 -42 -54t-47 -47l-57 71q106 88 141 236l86 -16q-9 -32 -18.5 -61.5t-21.5 -55.5q30 -16 56 -32.5t51 -35.5l-49 -78q-25 22 -49 40t-50 33zM660 378q-16 -23 -33.5 -43t-37.5 -37l-57 72q86 77 117 206l85 -15q-12 -58 -34 -110q65 -33 125 -82l-51 -80
q-57 53 -114 89zM396 597h-315v89h315v84h95v-84h316v-89h-316v-232q132 -179 363 -286l-51 -88q-90 45 -168 105t-144 136v-278h-95v276q-120 -142 -312 -242l-48 84q230 112 360 285v240z" />
    <glyph glyph-name="cid1464" unicode="&#x4f88;" 
d="M316 735q-34 -100 -89 -194v-591h-92v460q-20 -22 -39 -43.5t-40 -43.5l-31 100q139 147 207 351zM720 415q-11 -15 -22 -29t-23 -28h166v-76q-88 -235 -519 -335l-45 83q153 30 257 76q-20 16 -38 33t-37 33l68 49q47 -34 87 -73q86 58 126 129h-167q-98 -60 -243 -97
l-51 74q260 59 362 195zM622 756q-8 -13 -17 -26t-18 -24h200v-74q-91 -212 -463 -295l-50 73q62 13 116 29.5t101 37.5q-19 19 -34 32.5t-31 22.5l68 49q23 -18 39.5 -34t29.5 -32q39 24 70 52.5t54 58.5h-175q-73 -62 -162 -105l-56 66q139 67 243 187z" />
    <glyph glyph-name="cid1466" unicode="&#x4f8b;" 
d="M574 728v-88h-151q-2 -27 -6 -52t-9 -49h155v-80q-41 -366 -267 -508l-45 83q99 65 157 179q-23 22 -45 40t-45 34q-12 -21 -25.5 -41t-27.5 -36l-47 90q48 63 77 147t41 193h-58v88h296zM356 360q23 -13 44.5 -28.5t42.5 -33.5q13 36 21 75t14 83h-90q-14 -52 -32 -96z
M636 -42l-21 88q23 -3 44 -4.5t42 -1.5q32 0 32 30v699h93v-721q0 -90 -93 -90h-97zM107 393q-12 -17 -25 -33.5t-26 -34.5l-31 100q108 152 160 355l89 -41q-15 -51 -33.5 -98t-41.5 -95v-596h-92v443zM684 690v-547h-85v547h85z" />
    <glyph glyph-name="cid1468" unicode="&#x4f8f;" 
d="M156 430q-23 -26 -47 -52.5t-50 -52.5l-30 100q143 150 211 353l86 -42q-16 -45 -35 -87.5t-42 -83.5v-615h-93v480zM411 551q-13 -27 -26 -50.5t-26 -44.5l-80 49q73 113 103 240l88 -19q-5 -23 -11.5 -45t-13.5 -43h78v136h92v-136h184v-87h-184v-117h223v-89h-166
q57 -134 186 -240l-60 -76q-122 125 -183 273v-353h-92v353q-73 -165 -217 -280l-50 82q141 95 210 241h-180v89h237v117h-112z" />
    <glyph glyph-name="cid1469" unicode="&#x4f91;" 
d="M457 680q7 24 13 47t12 47l90 -15q-6 -21 -11 -40t-11 -39h300v-88h-329q-9 -22 -19 -42.5t-19 -40.5h311v-464q0 -85 -99 -86h-114l-23 82q30 -2 57 -3.5t53 -1.5q40 0 40 37v58h-247v-177h-83v393q-20 -23 -42 -45.5t-45 -41.5l-54 70q117 105 186 262h-140v88h174z
M461 206h247v70h-247v-70zM708 426h-247v-76h247v76zM119 403q-15 -20 -31 -39t-32 -39l-31 100q117 149 177 349l85 -39q-29 -102 -77 -189v-596h-91v453z" />
    <glyph glyph-name="cid1471" unicode="&#x4f97;" 
d="M132 424q-19 -25 -38.5 -50t-38.5 -49l-30 98q57 75 98.5 164.5t70.5 193.5l86 -42q-13 -41 -27 -80t-31 -78v-626h-90v469zM685 440v-320h-252v320h252zM605 362h-92v-164h92v164zM625 -44l-25 87l107 -4q27 0 27 40v580h-349v-708h-91v793h532v-686q0 -102 -91 -102
h-110zM691 589v-83h-265v83h265z" />
    <glyph glyph-name="cid1472" unicode="&#x4f9b;" 
d="M404 592v178h94v-178h130v178h93v-178h109v-89h-109v-179h133v-89h-579v89h129v179h-106v89h106zM628 324v179h-130v-179h130zM680 224q55 -61 96.5 -114.5t71.5 -99.5l-84 -59q-30 52 -69.5 107.5t-89.5 117.5zM516 175q-68 -130 -160 -227l-81 58q92 91 157 211z
M132 411q-19 -21 -38.5 -42.5t-38.5 -43.5l-30 100q134 151 200 356l87 -42q-34 -102 -86 -193v-595h-94v460z" />
    <glyph glyph-name="cid1473" unicode="&#x4f9d;" 
d="M300 739q-28 -87 -71 -171v-312q149 121 220 301h-172v87h228q-9 31 -17.5 58t-19.5 54l100 14q7 -27 15.5 -58t15.5 -68h221v-87h-188q13 -108 40 -192q63 47 110 106l57 -75q-51 -54 -138 -112q57 -134 154 -226l-56 -91q-212 216 -252 590h-4q-16 -43 -34.5 -85
t-41.5 -80v-310q38 12 73.5 26t69.5 31l16 -89q-55 -23 -121.5 -46t-144.5 -45l-19 79q35 14 35 47v182q-23 -25 -48.5 -48.5t-51.5 -46.5l-47 75v-292h-94v465q-20 -24 -39 -47.5t-41 -47.5l-30 99q125 151 188 357z" />
    <glyph glyph-name="cid1474" unicode="&#x4fa0;" 
d="M119 404q-15 -21 -31 -40t-32 -39l-31 99q117 152 177 355l85 -41q-29 -101 -77 -189v-599h-91v454zM788 542q-12 -45 -28 -85t-36 -76l-75 27q34 64 61 156zM373 562q15 -35 28 -74t25 -85l-79 -21q-11 41 -23 79t-28 74zM502 671v100h91v-100h220v-85h-220v-96
q0 -33 -2.5 -64t-6.5 -60h248v-88h-216q76 -139 245 -252l-64 -82q-165 129 -248 286q-72 -193 -267 -287l-55 75q185 80 246 260h-203v88h224q4 25 6 50.5t2 52.5v117h-218v85h218z" />
    <glyph glyph-name="cid15173" unicode="&#x4fa1;" 
d="M826 -49h-90v52h-343v-48h-87v583h147v118h-158v88h543v-88h-159v-118h147v-587zM539 656v-118h54v118h-54zM453 85v371h-60v-371h60zM539 85h54v371h-54v-371zM679 85h57v371h-57v-371zM289 738q-28 -93 -72 -180v-608h-91v462q-16 -22 -34 -43.5t-37 -43.5l-30 100
q59 75 104 163.5t75 190.5z" />
    <glyph glyph-name="cid1475" unicode="&#x4fa3;" 
d="M787 735v-313h-434v313h434zM697 653h-258v-150h258v150zM826 -48h-93v49h-332v-49h-89v394h514v-394zM733 85v178h-332v-178h332zM134 416q-20 -23 -38.5 -45t-40.5 -45l-30 93q135 153 199 355l84 -39q-17 -48 -36.5 -93.5t-44.5 -89.5v-602h-93v466z" />
    <glyph glyph-name="cid1477" unicode="&#x4fa6;" 
d="M591 774v-57h236v-84h-236v-59h191v-420h-91v338h-271v-350h-89v432h167v200h93zM643 160q60 -39 110.5 -75.5t93.5 -73.5l-65 -64q-70 70 -201 153zM604 440v-120q-7 -149 -72 -240q-63 -84 -208 -129l-48 79q136 42 185 108q47 70 53 182v120h90zM136 416
q-20 -22 -39 -43.5t-41 -41.5l-29 93q140 148 208 350l85 -39q-17 -52 -40.5 -99.5t-51.5 -93.5v-592h-92v466z" />
    <glyph glyph-name="cid1478" unicode="&#x4fa7;" 
d="M568 180h-81v470h-142v-475h-81v554h304v-549zM480 147q35 -33 64.5 -66.5t53.5 -66.5l-63 -64q-37 65 -111 142zM453 618v-290q-4 -152 -46 -245q-42 -87 -133 -133l-47 75q86 44 119 113q30 76 34 190v290h73zM112 408q-12 -20 -26.5 -40.5t-30.5 -40.5l-30 97
q105 151 155 355l80 -39q-24 -92 -62 -178v-611h-86v457zM641 -41l-20 84q23 -2 44.5 -3.5t42.5 -1.5q27 0 27 32v699h90v-721q0 -89 -86 -89h-98zM690 692v-544h-80v544h80z" />
    <glyph glyph-name="cid1484" unicode="&#x4faf;" 
d="M648 591v69h-311v84h399v-153h103v-83h-557v83h366zM392 359q-30 -43 -68 -73l-54 67q65 52 115 148l80 -18q-6 -10 -11 -20.5t-9 -19.5h352v-84h-197q-2 -22 -4.5 -43t-6.5 -40h243v-82h-193q48 -102 215 -159l-51 -80q-188 84 -242 217q-7 -15 -13.5 -27.5t-12.5 -24.5
q-64 -96 -213 -169l-57 75q133 57 191 135q5 7 9 15.5t10 17.5h-205v82h231q4 19 7.5 40t5.5 43h-122zM135 420q-20 -24 -38.5 -47.5t-39.5 -47.5l-31 99q62 74 106.5 162.5t74.5 187.5l84 -39q-13 -43 -29 -83.5t-35 -79.5v-622h-92v470z" />
    <glyph glyph-name="cid1485" unicode="&#x4fb5;" 
d="M114 400q-14 -20 -28.5 -38t-30.5 -37l-31 100q115 149 174 355l87 -41q-17 -51 -36 -100t-43 -95v-594h-92v450zM319 446v74h364v41h-340v72h340v43h-370v71h452v-301h-446zM826 251h-79v-37q-36 -70 -109 -124q42 -19 95 -34t114 -28l-49 -77q-147 36 -245 87
q-54 -26 -120.5 -49t-146.5 -40l-33 81q127 24 214 60q-75 55 -108 120h-38v44h-59v156h564v-159zM453 210q39 -45 98 -79q58 35 97 79h-195zM739 287v46h-391v-46h391z" />
    <glyph glyph-name="cid15183" unicode="&#x4fb6;" 
d="M353 422v313h434v-313h-190q-3 -20 -7 -38.5t-9 -37.5h245v-394h-93v49h-332v-49h-89v394h178l9.5 38t10.5 38h-157zM733 85v178h-332v-178h332zM697 653h-258v-150h258v150zM134 416q-20 -23 -38.5 -45t-40.5 -45l-30 93q135 153 199 355l84 -38q-17 -48 -36.5 -94
t-44.5 -90v-602h-93v466z" />
    <glyph glyph-name="cid15184" unicode="&#x4fb7;" 
d="M691 318v-230h-224v230h224zM618 248h-78v-88h78v88zM439 660v-68h279v68h-279zM439 456h391q0 -174 -3 -279.5t-9 -145.5q-16 -76 -133 -76q-11 0 -31 1t-46 3l-20 78q24 -2 45 -3.5t39 -1.5q51 0 61 38q5 22 7 97t3 206h-304q-5 -121 -32 -224t-77 -191l-70 61
q92 155 93 398v329h454v-236h-368v-54zM326 732q-18 -52 -41 -100.5t-52 -96.5v-585h-91v460q-18 -22 -39 -44t-43 -44l-30 97q72 76 124.5 163t87.5 188z" />
    <glyph glyph-name="cid1486" unicode="&#x4fbf;" 
d="M839 743v-85h-242v-57h203v-360h-206q-11 -80 -45 -136q67 -34 143.5 -51t164.5 -20l-22 -86q-194 10 -342 90q-71 -57 -199 -90l-48 74q112 30 166 66q-55 41 -104 94l68 46q21 -22 44.5 -42t49.5 -38q13 20 20.5 44t11.5 49h-196v360h200v57h-205v85h538zM713 384h-116
v-69h116v69zM506 384h-114v-69h114v69zM506 459v68h-114v-68h114zM597 459h116v68h-116v-68zM124 410q-17 -21 -32.5 -42.5t-34.5 -42.5l-31 99q115 148 173 350l83 -39q-14 -45 -30 -88.5t-37 -84.5v-612h-91v460z" />
    <glyph glyph-name="cid15194" unicode="&#x4fc2;" 
d="M309 739q-16 -51 -37.5 -99t-47.5 -94v-596h-91v462q-19 -21 -37.5 -43t-38.5 -44l-31 99q132 152 198 357zM433 -39l-20 85q20 -3 39.5 -4.5t39.5 -1.5q25 0 25 33v193q-47 -5 -93 -9t-94 -6l-20 76q9 3 16 4t15 3q69 28 178 128q-41 -5 -84 -9.5t-87 -7.5l-17 74
q82 30 137 119q-60 -3 -127 -3l-28 80q136 0 250 14.5t207 41.5l43 -71q-103 -37 -245 -54q-20 -34 -41 -63t-43 -53l118 12q39 42 82 87l82 -31q-82 -87 -152.5 -152.5t-130.5 -111.5q53 6 104 11.5t103 11.5q-11 15 -22.5 29.5t-21.5 29.5l66 42q87 -110 132 -188l-67 -47
q-9 17 -19.5 33t-22.5 34l-130 -16v-224q0 -89 -83 -89h-89zM437 177q-51 -112 -124 -192l-70 50q70 75 121 178zM711 230q44 -56 77.5 -104.5t55.5 -90.5l-69 -48q-24 45 -57 95t-74 106z" />
    <glyph glyph-name="cid1487" unicode="&#x4fc3;" 
d="M124 406q-17 -21 -32.5 -40.5t-34.5 -40.5l-31 100q62 75 106.5 162.5t74.5 186.5l83 -39q-14 -48 -33 -94.5t-42 -89.5v-601h-91v456zM794 744v-306h-174v-120h196v-84h-196v-176q20 -2 43.5 -4t49.5 -4q71 0 143 3l-18 -88h-82q-196 1 -266 39q-71 34 -115 108
q-18 -49 -40 -90.5t-47 -77.5l-59 74q89 138 123 370l87 -16q-6 -44 -14.5 -83.5t-16.5 -75.5q17 -43 48 -80q32 -34 72 -51v356h-198v306h464zM703 659h-283v-136h283v136z" />
    <glyph glyph-name="cid1488" unicode="&#x4fc4;" 
d="M277 -42l-19 87q19 -3 36.5 -5t35.5 -2q32 0 32 35v129q-27 -8 -52 -16.5t-51 -15.5l-23 95q31 5 63.5 13.5t62.5 16.5v154h-123v88h123v71q-20 -7 -38.5 -12.5t-38.5 -10.5l-36 79q-10 -27 -20.5 -52.5t-22.5 -50.5v-611h-92v454q-27 -41 -58 -79l-31 100
q109 150 162 354l85 -40q-6 -18 -11.5 -35.5t-10.5 -37.5q142 34 214 99l65 -55q-15 -18 -34.5 -33.5t-42.5 -27.5v-112h105q-4 107 -4 233h87q0 -130 3 -233h192v-88h-187q4 -110 17 -193q22 35 41.5 75t36.5 85l70 -37q-26 -69 -57 -127t-69 -105q27 -88 58 -95
q20 4 45 131l71 -61q-49 -172 -116 -172q-53 0 -96 71q-13 24 -24 56q-52 -45 -109 -74l-49 74q35 18 67 40.5t62 52.5q-4 18 -8.5 36t-6.5 37q-6 45 -11 96.5t-8 109.5h-110v-121q19 9 39.5 17.5t38.5 17.5v-93q-18 -9 -38.5 -17.5t-39.5 -16.5v-186q0 -92 -92 -92h-83z
M721 748q55 -57 103 -125l-68 -53q-25 39 -49 70.5t-47 61.5z" />
    <glyph glyph-name="cid1490" unicode="&#x4fca;" 
d="M685 738q49 -48 87.5 -88.5t64.5 -75.5l-74 -52q-9 15 -20 28.5t-22 27.5q-107 -16 -209 -27.5t-200 -20.5l-17 79q44 17 90 59.5t92 112.5l96 -31q-63 -82 -127 -133q69 9 123 15t93 12q-11 13 -22.5 25t-23.5 24zM479 476q-70 -79 -178 -142l-55 73q51 27 94.5 57.5
t79.5 65.5zM779 350q-40 34 -83.5 67.5t-93.5 65.5l59 58q77 -43 181 -125zM397 202q-22 -14 -44 -27t-47 -27l-57 74q189 90 253 219l87 -21q-9 -20 -20.5 -39t-23.5 -37h210v-76q-30 -90 -114 -159q47 -23 102 -40t118 -31l-35 -89q-161 34 -269 102q-56 -32 -123.5 -57.5
t-148.5 -44.5l-45 85q72 13 132 31.5t107 41.5q-23 23 -44 46t-38 49zM562 156q63 48 97 108h-187q-2 -3 -4 -5.5t-4 -4.5q36 -55 98 -98zM132 411q-37 -43 -76 -86l-31 100q134 152 199 355l86 -41q-16 -51 -37 -98t-47 -92v-599h-94v461z" />
    <glyph glyph-name="cid1492" unicode="&#x4fcf;" 
d="M136 412q-18 -20 -37 -41.5t-39 -43.5l-30 98q131 151 195 351l86 -41q-16 -51 -36.5 -98t-46.5 -90v-597h-92v462zM622 769v-236h188v-469q0 -107 -101 -107h-100l-22 88l92 -5q40 0 40 45v57h-292v-193h-91v584h194v236h92zM427 220h292v74h-292v-74zM719 446h-292v-74
h292v74zM395 736q19 -32 39 -67.5t39 -76.5l-77 -38q-38 80 -83 144zM832 709q-20 -41 -43 -80t-53 -75l-70 36q28 41 49 79.5t40 76.5z" />
    <glyph glyph-name="cid1493" unicode="&#x4fd0;" 
d="M112 411q-12 -19 -26 -37.5t-29 -37.5l-32 98q104 144 155 338l82 -38l-8 -31q178 17 282 59l41 -72q-28 -10 -56 -19.5t-57 -17.5v-109h107v-88h-107v-38q29 -29 57 -61.5t58 -67.5l-50 -76q-18 33 -35 60t-30 49v-366h-84v367q-26 -59 -57.5 -113t-69.5 -102l-38 94
q107 114 159 254h-115v88h121v91q-26 -4 -50.5 -7t-51.5 -5l-26 74q-12 -37 -25 -70t-28 -65v-602h-87v451zM620 -42l-18 87q24 -3 47.5 -5t46.5 -2q38 0 38 31v697h90v-719q0 -89 -98 -89h-106zM680 689v-542h-83v542h83z" />
    <glyph glyph-name="cid1495" unicode="&#x4fd7;" 
d="M733 325q-58 41 -102 87.5t-78 99.5q-38 -58 -84 -104t-100 -83h364zM345 310q-12 -8 -23 -14.5t-24 -14.5l-52 79q181 94 281 244h54q40 -70 107.5 -129.5t165.5 -114.5l-53 -79q-14 10 -26 16.5t-23 15.5v-358h-87v39h-232v-39h-88v355zM665 79v163h-232v-163h232z
M644 763q108 -73 184 -146l-70 -68q-61 74 -177 155zM503 703q-76 -97 -155 -164l-68 64q90 72 154 153zM134 408q-19 -20 -37.5 -41t-38.5 -42l-29 99q66 74 114 160t81 187l87 -39q-16 -51 -37 -98t-47 -92v-587h-93v453z" />
    <glyph glyph-name="cid1499" unicode="&#x4fdd;" 
d="M302 739q-30 -97 -76 -182v-607h-94v465q-19 -23 -38.5 -45.5t-38.5 -44.5l-30 100q128 153 190 356zM766 736v-300h-170v-69h245v-91h-165q66 -114 182 -200l-60 -82q-59 58 -108 127.5t-88 154.5h-6v-325h-93v325h-7q-39 -90 -89 -160.5t-111 -121.5l-53 83
q110 77 180 199h-156v91h236v69h-169v300h432zM676 648h-252v-122h252v122z" />
    <glyph glyph-name="cid1502" unicode="&#x4fe1;" 
d="M123 407q-17 -22 -33.5 -41.5t-33.5 -40.5l-31 100q59 76 104 164.5t75 192.5l86 -42q-29 -100 -76 -189v-601h-91v457zM525 668q-9 22 -18 42.5t-19 39.5l88 24q13 -29 23 -55.5t18 -50.5h238v-87h-585v87h255zM780 534v-82h-430v82h430zM780 410v-84h-430v84h430z
M800 -49h-90v44h-290v-44h-90v327h470v-327zM710 84v107h-290v-107h290z" />
    <glyph glyph-name="cid1505" unicode="&#x4fe8;" 
d="M127 414q-17 -23 -35 -45t-37 -44l-30 99q126 150 185 355l80 -40q-29 -95 -74 -183v-606h-89v464zM826 744v-84h-155v-192h170v-85h-462v-129q-6 -191 -90 -305l-71 62q72 86 76 243v214h171v192h-154v84h515zM589 468v192h-43v-192h43zM805 627q-8 -42 -20 -79t-28 -67
l-67 24q28 56 48 139zM388 636q16 -29 30 -61.5t25 -65.5l-65 -29q-13 38 -27.5 71t-30.5 62z" />
    <glyph glyph-name="cid1506" unicode="&#x4fe9;" 
d="M135 426q-20 -26 -38.5 -51.5t-39.5 -49.5l-31 98q119 151 173 353l84 -39q-13 -40 -27 -78.5t-30 -74.5v-634h-91v476zM835 727v-91h-159l-2 -98h146v-484q0 -95 -87 -95h-78l-23 87l71 -5q29 0 29 32v128l-36 -56q-16 37 -28 66t-23 52q-24 -102 -70 -183l-53 68
q12 23 20.5 47.5t17.5 52.5l-46 -46q-6 19 -13 34.5t-13 30.5q-24 -89 -68 -163l-42 53v-202h-85v583h145q1 23 1 47.5v50.5h-150v91h546zM661 353q36 -49 71 -106v206h-61q-3 -12 -3 -22.5t-1 -22.5zM565 274q9 37 15 79t9 89v11h-74l-2 -33q-2 -15 -3.5 -29.5t-3.5 -28.5
q13 -17 28 -39.5t31 -48.5zM594 636h-72q0 -26 -0.5 -50.5t-2.5 -47.5h74zM378 194q23 51 37.5 115.5t19.5 143.5h-57v-259z" />
    <glyph glyph-name="cid1509" unicode="&#x4fee;" 
d="M589 763q-6 -15 -11 -28t-12 -26h242v-79q-18 -40 -46 -73t-65 -62q69 -26 156 -45l-39 -85q-62 14 -113.5 32.5t-95.5 40.5q-88 -44 -214 -75l-35 84q90 19 163 48q-41 36 -63 69q-12 -9 -23 -18t-23 -18l-53 69q105 71 142 177zM514 625q16 -24 39.5 -46t53.5 -41
q32 20 56 41.5t44 45.5h-193zM294 736q-16 -48 -35 -95t-43 -90v-600h-89v461q-17 -22 -34 -43.5t-37 -42.5l-29 93q126 154 183 357zM353 612v-502h-86v502h86zM691 357q-26 -20 -51.5 -38t-52.5 -30q-52 -25 -149 -57l-45 73q34 7 68 17t66 23q26 11 50.5 24t47.5 30z
M771 286q-106 -127 -319 -186l-37 80q100 22 173 60.5t123 90.5zM380 27q154 41 243 90q95 53 161 136l65 -51q-60 -88 -181 -159q-60 -32 -122 -57.5t-127 -42.5z" />
    <glyph glyph-name="cid1510" unicode="&#x4fef;" 
d="M443 313q-10 -12 -20.5 -22.5t-21.5 -20.5l-21 72q-12 -243 -83 -393l-70 63q29 71 45.5 167.5t17.5 221.5v292h245q-9 19 -16.5 35.5t-17.5 32.5l101 17q8 -20 15.5 -41t14.5 -44h207v-86h-458v-206q0 -10 -0.5 -20.5t-0.5 -20.5q84 99 124 234l82 -39q-23 -67 -57 -124
v-477h-86v359zM702 471v105h90v-105h57v-88h-57v-340q0 -89 -91 -89h-83l-20 86q20 -2 37.5 -4t35.5 -2q31 0 31 31v318h-137v88h137zM616 344q18 -40 35.5 -82.5t34.5 -90.5l-72 -37q-31 95 -69 174zM123 411q-17 -22 -33.5 -43.5t-33.5 -42.5l-31 100q57 76 100 164.5
t71 192.5l86 -43q-14 -47 -30.5 -90t-37.5 -86v-613h-91v461z" />
    <glyph glyph-name="cid1511" unicode="&#x4ff1;" 
d="M141 420q-38 -48 -84 -95l-32 100q137 148 205 353l87 -42q-16 -48 -36 -92t-45 -87v-607h-95v470zM773 211h81v-85h-169q41 -27 79.5 -55.5t73.5 -58.5l-60 -68q-40 40 -82.5 73.5t-86.5 63.5l42 45h-174l49 -42q-38 -41 -84.5 -75.5t-102.5 -65.5l-56 73q97 47 166 110
h-173v85h83v534h414v-534zM683 211v60h-234v-60h234zM683 346v58h-234v-58h234zM683 480v54h-234v-54h234zM683 609v58h-234v-58h234z" />
    <glyph glyph-name="cid15236" unicode="&#x5009;" 
d="M270 380v-21.5t-2 -20.5h373v42h-371zM641 497h-371v-45h371v45zM253 219h505v-268h-89v32h-335v-34h-91v233q-34 -129 -111 -231l-75 66q122 144 123 367v160l-46 -22t-46 -21l-53 82q104 40 196.5 86.5t177.5 100.5h73q166 -107 373 -187l-53 -82q-20 9 -37.5 17.5
t-34.5 15.5v-273h-469zM669 60v81h-335v-81h335zM652 574q-59 29 -110 59t-97 59q-46 -29 -96.5 -59t-108.5 -59h175q-7 14 -15.5 27t-15.5 26l75 37q14 -21 27.5 -43.5t26.5 -46.5h139z" />
    <glyph glyph-name="cid15238" unicode="&#x500b;" 
d="M306 735q-17 -49 -36.5 -96t-44.5 -89v-600h-93v461q-18 -21 -35.5 -42.5t-37.5 -42.5l-29 98q65 74 112.5 161t79.5 189zM831 -48h-84v51h-356v-51h-82v794h522v-794zM747 85v581h-356v-581h356zM530 544v88h79v-88h114v-78h-114v-85h87v-261h-249v261h83v85h-112v78
h112zM625 312h-106v-122h106v122z" />
    <glyph glyph-name="cid1517" unicode="&#x500d;" 
d="M502 694q-12 39 -25 68l94 17q6 -20 13 -41t13 -44h224v-88h-526v88h207zM409 453q-11 30 -23 56t-26 53l87 32q15 -30 29 -64.5t26 -76.5h101q16 33 28.5 69t24.5 74l91 -33q-12 -31 -22.5 -57.5t-22.5 -52.5h141v-90h-582v90h148zM773 -48h-94v42h-258v-42h-93v353h445
v-353zM679 85v131h-258v-131h258zM122 406q-17 -21 -33.5 -40.5t-33.5 -40.5l-30 100q59 75 104 164t75 192l85 -42q-14 -48 -32.5 -94t-41.5 -91v-604h-93v456z" />
    <glyph glyph-name="cid15241" unicode="&#x5011;" 
d="M129 417q-30 -49 -72 -101l-32 102q108 152 161 361l84 -40q-10 -38 -23.5 -76t-28.5 -74v-633h-89v461zM376 456h68v71h-68v-71zM444 666h-68v-66h68v66zM665 456h75v71h-75v-71zM740 664h-75v-64h75v64zM530 378h-154v-423h-89v789h243v-366zM576 377v367h250v-701
q0 -83 -79 -83q-26 0 -52 0.5t-51 1.5l-24 84q26 -1 50.5 -2.5t47.5 -1.5q22 0 22 30v305h-164z" />
    <glyph glyph-name="cid1519" unicode="&#x5012;" 
d="M573 38q-75 -22 -153.5 -39t-161.5 -32l-22 86q31 4 63.5 9.5t63.5 10.5v143h-110v85h110v92h90v-92h104v-85h-104v-123q31 7 60.5 15.5t59.5 17.5v-88zM565 743v-84h-142q-34 -109 -61 -172q26 6 50.5 11t51.5 11q-10 20 -19.5 38.5t-19.5 38.5l67 41q30 -55 52 -104.5
t38 -91.5l-68 -47q-6 16 -12 30t-11 31q-54 -15 -112.5 -26t-119.5 -19l-21 77q13 3 21 5t15 4q10 17 24.5 59.5t34.5 113.5h-72v84h304zM643 -41l-20 87q22 -3 42.5 -4.5t41.5 -1.5q29 0 29 37v692h91v-715q0 -95 -89 -95h-95zM683 692v-544h-84v544h84zM114 411
q-27 -43 -58 -86l-31 100q100 153 146 354l83 -40q-21 -76 -50 -152v-637h-90v461z" />
    <glyph glyph-name="cid1521" unicode="&#x5018;" 
d="M608 771v-250h216v-465q0 -102 -94 -102h-75l-23 88l68 -4q34 0 34 38v358h-347v-483h-90v570h219v250h92zM683 371v-266h-244v266h244zM600 293h-78v-109h78v109zM827 700q-23 -48 -49.5 -89t-57.5 -77l-69 52q58 62 100 150zM400 728q19 -37 34.5 -75t29.5 -78l-77 -35
q-17 46 -34.5 85.5t-36.5 74.5zM133 410q-18 -22 -36.5 -43t-38.5 -42l-29 100q131 149 196 354l87 -42q-33 -103 -85 -191v-596h-94v460z" />
    <glyph glyph-name="cid1522" unicode="&#x5019;" 
d="M282 736q-15 -48 -32.5 -93.5t-39.5 -89.5v-603h-86v460q-17 -22 -32.5 -43t-33.5 -42l-29 99q112 148 170 352zM344 610v-523h-84v523h84zM649 581v77h-242v81h332v-158h88v-81h-459v81h281zM476 353q-28 -48 -60 -81l-56 68q55 54 98 154l77 -18q-6 -12 -9.5 -21.5
t-7.5 -20.5h287v-81h-162q-2 -22 -3.5 -42.5t-5.5 -40.5h208v-80h-187q63 -91 199 -164l-60 -76q-68 45 -117 94t-82 101q-68 -132 -220 -201l-58 75q147 57 201 171h-153v80h181q3 20 5 40.5t2 42.5h-77z" />
    <glyph glyph-name="cid1523" unicode="&#x501a;" 
d="M516 708q2 8 2.5 17t2.5 18v27h88v-27q-1 -9 -1 -18t-2 -17h209v-86h-229l-5 -11q127 -34 232 -82l-51 -81q-55 31 -110.5 55t-112.5 43q-60 -64 -193 -99l-49 76q129 35 174 81q4 5 6.5 9.5t5.5 8.5h-170v86h203zM854 440v-87h-79v-312q0 -86 -96 -86h-109l-21 87
q26 -2 51 -3.5t48 -1.5q35 0 35 27v289h-418v87h589zM597 310v-233h-280v233h280zM511 236h-107v-84h107v84zM126 408q-33 -42 -70 -83l-31 100q127 153 187 354l86 -41q-30 -97 -81 -192v-596h-91v458z" />
    <glyph glyph-name="cid1525" unicode="&#x501f;" 
d="M135 420q-35 -49 -78 -95l-31 99q122 150 180 355l87 -42q-14 -44 -29.5 -85.5t-36.5 -81.5v-620h-92v470zM396 680v86h91v-86h138v86h89v-86h116v-82h-116v-83h134v-87h-583v87h131v83h-110v82h110zM625 515v83h-138v-83h138zM781 -43h-90v33h-264v-33h-88v423h442v-423
zM691 73v72h-264v-72h264zM691 225v73h-264v-73h264z" />
    <glyph glyph-name="cid1526" unicode="&#x5021;" 
d="M779 744v-342h-435v342h435zM688 532h-255v-52h255v52zM688 610v54h-255v-54h255zM826 -49h-92v31h-345v-31h-89v400h526v-400zM734 65v65h-345v-65h345zM734 210v60h-345v-60h345zM132 411q-19 -21 -38.5 -42.5t-38.5 -43.5l-30 99q135 153 200 356l86 -41
q-33 -102 -85 -192v-597h-94v461z" />
    <glyph glyph-name="cid1531" unicode="&#x502a;" 
d="M392 389h320v90h-135v83h135v91h-126v81h213v-429h-123v-213q0 -42 27 -42h28q17 0 24 15q8 17 11 99l89 -27q-11 -127 -34 -152q-25 -23 -71 -23h-75q-92 0 -92 111v232h-65q-13 -144 -50 -211q-46 -82 -159 -146l-58 74q93 48 134 113q31 55 40 170h-119v408
q92 19 181 66l53 -74q-61 -29 -148 -59v-84h131v-82h-131v-91zM124 407q-17 -19 -33.5 -40t-34.5 -42l-31 100q122 150 180 354l86 -41q-29 -97 -75 -184v-604h-92v457z" />
    <glyph glyph-name="cid15254" unicode="&#x502b;" 
d="M360 532q-38 -20 -74 -35l-51 79q177 74 271 191h82q80 -110 269 -191l-52 -79q-19 9 -37 17t-36 17v-36h-372v37zM655 578q-33 23 -59.5 49t-48.5 52q-25 -29 -53 -53.5t-58 -47.5h219zM370 -45h-85v490h511v-400q0 -90 -84 -90h-76l-11 37h-59v181h-56v-181h-78v181
h-62v-218zM684 36q26 0 26 27v110h-66v-135zM710 360h-66v-106h66v106zM510 360v-106h56v106h-56zM370 360v-106h62v106h-62zM301 739q-16 -51 -37 -99.5t-46 -93.5v-596h-91v458q-35 -42 -70 -83l-32 100q128 152 190 355z" />
    <glyph glyph-name="cid1535" unicode="&#x503a;" 
d="M522 732v38h93v-38h207v-76h-207v-34h184v-71h-184v-36h239v-79h-576v79h244v36h-183v71h183v34h-209v76h209zM797 99h-90v217h-275v-224h-90v305h455v-298zM617 289q0 -107 -40 -184q-45 -94 -224 -158l-59 71q150 49 197 119q34 59 36 152h90zM631 121q63 -18 117 -43
t106 -53l-52 -82q-106 68 -221 107zM132 416q-19 -23 -37.5 -45.5t-38.5 -45.5l-31 100q126 151 185 355l87 -41q-29 -91 -71 -177v-612h-94v466z" />
    </font>
</defs>
</svg>
