<?xml version="1.0" encoding="UTF-8"?>
<svg width="30px" height="30px" viewBox="0 0 30 30" version="1.1" xmlns="http://www.w3.org/2000/svg" xmlns:xlink="http://www.w3.org/1999/xlink">
    <!-- Generator: Sketch 55.2 (78181) - https://sketchapp.com -->
    <title>email@1x</title>
    <desc>Created with Sketch.</desc>
    <g id="页面1" stroke="none" stroke-width="1" fill="none" fill-rule="evenodd">
        <g id="5" transform="translate(-62.000000, -720.000000)" fill="#000000" fill-rule="nonzero">
            <g id="email" transform="translate(62.000000, 720.000000)">
                <path d="M25.6407692,24.1786667 L4.35923077,24.1786667 C2.58923077,24.1786667 1.15038462,22.7226667 1.15038462,20.9341667 L1.15038462,8.06583333 C1.15038462,6.27616667 2.59038462,4.82133333 4.35923077,4.82133333 L25.6407692,4.82133333 C27.4107692,4.82133333 28.8496154,6.27733333 28.8496154,8.06583333 L28.8496154,20.933 C28.8496154,22.7226667 27.4107692,24.1786667 25.6407692,24.1786667 Z M4.35923077,5.988 C3.22615385,5.988 2.30423077,6.92016667 2.30423077,8.06583333 L2.30423077,20.933 C2.30423077,22.0786667 3.22615385,23.0108333 4.35923077,23.0108333 L25.6407692,23.0108333 C26.7738462,23.0108333 27.6957692,22.0786667 27.6957692,20.933 L27.6957692,8.06583333 C27.6957692,6.92016667 26.7738462,5.988 25.6407692,5.988 L4.35923077,5.988 Z" id="形状"></path>
                <g id="编组" transform="translate(4.615385, 8.666667)">
                    <path d="M10.3846154,7.21466667 C10.0130769,7.21466667 9.64846154,7.1155 9.33,6.92766667 L0.602307692,1.834 C0.326538462,1.673 0.231923077,1.316 0.391153846,1.03716667 C0.550384615,0.758333333 0.903461538,0.662666667 1.17923077,0.823666667 L9.90807692,5.9185 C10.1965385,6.08883333 10.5738462,6.08766667 10.86,5.91966667 L19.5911538,0.823666667 C19.8657692,0.662666667 20.2188462,0.758333333 20.3792308,1.03716667 C20.5384615,1.316 20.4438462,1.673 20.1680769,1.834 L11.4380769,6.92883333 C11.1196154,7.1155 10.755,7.21466667 10.3846154,7.21466667 Z" id="路径"></path>
                    <g transform="translate(0.000000, 5.833333)" id="路径">
                        <g>
                            <path d="M5.34,2.492 C5.14038462,2.492 4.94653846,2.387 4.83923077,2.20033333 C4.68,1.9215 4.77461538,1.5645 5.05038462,1.4035 L5.55,1.11183333 C5.82461538,0.949666667 6.17769231,1.0465 6.33807692,1.32533333 C6.49730769,1.60416667 6.40269231,1.96116667 6.12692308,2.12216667 L5.62730769,2.41383333 C5.53730769,2.46633333 5.43807692,2.492 5.34,2.492 Z"></path>
                            <path d="M2.97,3.8745 C2.77038462,3.8745 2.57653846,3.7695 2.46923077,3.58283333 C2.31,3.304 2.40461538,2.947 2.68038462,2.786 L3.47076923,2.324 C3.74538462,2.1595 4.09961538,2.2575 4.25884615,2.5375 C4.41807692,2.8175 4.32346154,3.17333333 4.04769231,3.33433333 L3.25730769,3.79633333 C3.16730769,3.85 3.06807692,3.8745 2.97,3.8745 Z"></path>
                            <path d="M0.889615385,5.08783333 C0.69,5.08783333 0.496153846,4.98283333 0.388846154,4.79616667 C0.229615385,4.51733333 0.324230769,4.16033333 0.6,3.99933333 L1.09961538,3.70766667 C1.37423077,3.54316667 1.72730769,3.64116667 1.88769231,3.92116667 C2.04692308,4.2 1.95230769,4.557 1.67653846,4.718 L1.17692308,5.00966667 C1.08692308,5.06333333 0.987692308,5.08783333 0.889615385,5.08783333 Z"></path>
                        </g>
                        <g transform="translate(13.846154, 0.000000)">
                            <path d="M6.03346154,5.08783333 C5.93538462,5.08783333 5.83615385,5.06333333 5.745,5.00966667 L5.24538462,4.718 C4.96961538,4.557 4.875,4.20116667 5.03423077,3.92116667 C5.19346154,3.64233333 5.54538462,3.54433333 5.82230769,3.70766667 L6.32192308,3.99933333 C6.59769231,4.16033333 6.69230769,4.51616667 6.53307692,4.79616667 C6.42576923,4.98283333 6.23192308,5.08783333 6.03346154,5.08783333 Z"></path>
                            <path d="M3.95307692,3.87333333 C3.855,3.87333333 3.75576923,3.84883333 3.66461538,3.79516667 L2.87423077,3.33316667 C2.59846154,3.17216667 2.50384615,2.81633333 2.66307692,2.53633333 C2.82230769,2.25633333 3.17538462,2.16066667 3.45115385,2.32283333 L4.24153846,2.78483333 C4.51730769,2.94583333 4.61192308,3.30166667 4.45269231,3.58166667 C4.34653846,3.76833333 4.15269231,3.87333333 3.95307692,3.87333333 Z"></path>
                            <path d="M1.58307692,2.49083333 C1.485,2.49083333 1.38576923,2.46633333 1.29461538,2.41266667 L0.795,2.121 C0.519230769,1.96 0.424615385,1.60416667 0.583846154,1.32416667 C0.743076923,1.04533333 1.095,0.9485 1.37192308,1.11066667 L1.87153846,1.40233333 C2.14730769,1.56333333 2.24192308,1.91916667 2.08269231,2.19916667 C1.97538462,2.38583333 1.78153846,2.49083333 1.58307692,2.49083333 Z"></path>
                        </g>
                    </g>
                </g>
            </g>
        </g>
    </g>
</svg>