<?xml version="1.0" encoding="UTF-8"?>
<svg width="120px" height="120px" viewBox="0 0 120 120" version="1.1" xmlns="http://www.w3.org/2000/svg" xmlns:xlink="http://www.w3.org/1999/xlink">
    <!-- Generator: Sketch 55.2 (78181) - https://sketchapp.com -->
    <title>imagepicker/default 2@1x</title>
    <desc>Created with Sketch.</desc>
    <g id="页面1" stroke="none" stroke-width="1" fill="none" fill-rule="evenodd">
        <g id="2" transform="translate(-40.000000, -1144.000000)">
            <g id="imagepicker/default-2" transform="translate(40.000000, 1144.000000)">
                <g id="imagepicker/default">
                    <rect id="bg" stroke="#DDDDDD" stroke-width="0.759493671" fill="#F7F7F7" x="0.379746835" y="0.379746835" width="119.240506" height="119.240506" rx="4.55696203"></rect>
                    <g id="imagepicker/_resource/add-icon2" transform="translate(35.696203, 36.455696)" fill="#999999">
                        <path d="M45.5696203,45.5696203 L3.03797468,45.5696203 C1.36234177,45.5696203 0,44.2072785 0,42.5316456 L0,6.07594937 C0,4.40031646 1.36234177,3.03797468 3.03797468,3.03797468 L45.5696203,3.03797468 C47.2452532,3.03797468 48.6075949,4.40031646 48.6075949,6.07594937 L48.6075949,42.5316456 C48.6075949,44.2072785 47.2452532,45.5696203 45.5696203,45.5696203 L45.5696203,45.5696203 Z M3.03797468,42.5316456 L45.5696203,42.5316456 L45.5696203,8.63449367 L34.3908228,25.153481 C33.8924051,25.8892405 32.8670886,26.0411392 32.1740506,25.4810127 L24.8829114,19.5664557 L16.6139241,31.0775316 C15.9541139,31.9984177 14.5537975,31.8939873 14.0316456,30.8876582 L3.03797468,9.65031646 L3.03797468,42.5316456 L3.03797468,42.5316456 L3.03797468,42.5316456 Z M37.9746835,37.9746835 C36.2974684,37.9746835 34.9367089,36.6139241 34.9367089,34.9367089 C34.9367089,33.2594937 36.2974684,31.8987342 37.9746835,31.8987342 C39.6518987,31.8987342 41.0126582,33.2594937 41.0126582,34.9367089 C41.0126582,36.6139241 39.6518987,37.9746835 37.9746835,37.9746835 L37.9746835,37.9746835 L37.9746835,37.9746835 Z" id="Shape" transform="translate(24.303797, 24.303797) scale(1, -1) translate(-24.303797, -24.303797) "></path>
                    </g>
                </g>
            </g>
        </g>
    </g>
</svg>