<?xml version="1.0" encoding="UTF-8"?>
<svg width="24px" height="24px" viewBox="0 0 24 24" version="1.1" xmlns="http://www.w3.org/2000/svg" xmlns:xlink="http://www.w3.org/1999/xlink">
    <!-- Generator: Sketch 55.2 (78181) - https://sketchapp.com -->
    <title>lock@1x</title>
    <desc>Created with Sketch.</desc>
    <g id="页面1" stroke="none" stroke-width="1" fill="none" fill-rule="evenodd">
        <g id="客服_聊天窗口对话中" transform="translate(-20.000000, -214.000000)" fill="#FFFFFF" fill-rule="nonzero">
            <g id="lock" transform="translate(20.000000, 214.000000)">
                <path d="M22,11.8484211 C22,10.6531606 21.0411432,9.68421053 19.8583333,9.68421053 L4.14166667,9.68421053 C2.95885683,9.68421053 2,10.6531606 2,11.8484211 L2,21.8357895 C2,23.0310499 2.95885683,24 4.14166667,24 L19.8583333,24 C21.0411432,24 22,23.0310499 22,21.8357895 L22,11.8484211 Z M12.9875,17.4105263 L13.3708333,20.1263158 C13.4048603,20.3595546 13.3364361,20.5961828 13.1834858,20.7742103 C13.0305355,20.9522379 12.8083005,21.0539247 12.575,21.0526438 L11.425,21.0526438 C11.192426,21.0526438 10.9713372,20.9504808 10.8193223,20.7726106 C10.6673073,20.5947405 10.5994163,20.3588253 10.6333333,20.1263158 L11.0166667,17.4063158 C11.0402858,17.1659908 10.9394578,16.9303717 10.75,16.7831579 C10.2166469,16.3142388 9.99120478,15.581079 10.1676453,14.8892836 C10.3440858,14.1974883 10.8921293,13.6657789 11.5833333,13.5157895 C12.1386495,13.3919154 12.7195908,13.5294169 13.1627093,13.8896079 C13.6058278,14.2497989 13.8632315,14.7937502 13.8625,15.3684211 C13.8690686,15.9070465 13.6459181,16.4224739 13.25,16.7831579 C13.0614176,16.9326401 12.9622387,17.1696753 12.9875,17.4105263 L12.9875,17.4105263 Z" id="形状"></path>
                <path d="M4.59583333,6.78315789 C4.55091526,7.0889473 4.64020265,7.39932691 4.84034539,7.63312733 C5.04048812,7.86692775 5.33158157,8.00089703 5.6375,8.00000448 L6.8875,8.00000448 C7.38299345,7.99885413 7.81025635,7.64782941 7.9125,7.15789474 C8.30269399,5.19059255 10.0123894,3.77481719 11.9979167,3.77481719 C13.9834439,3.77481719 15.6931393,5.19059255 16.0833333,7.15789474 C16.185577,7.64782941 16.6128399,7.99885413 17.1083333,8.00000448 L18.3583333,8.00000448 C18.6642518,8.00089703 18.9553452,7.86692775 19.1554879,7.63312733 C19.3556307,7.39932691 19.4449181,7.0889473 19.4,6.78315789 C18.8134642,3.11112794 15.6766456,0.411912495 11.9958333,0.411912495 C8.31502109,0.411912495 5.1782025,3.11112794 4.59166667,6.78315789 L4.59583333,6.78315789 Z" id="路径"></path>
            </g>
        </g>
    </g>
</svg>