<?xml version="1.0" encoding="UTF-8"?>
<svg width="36px" height="37px" viewBox="0 0 36 37" version="1.1" xmlns="http://www.w3.org/2000/svg" xmlns:xlink="http://www.w3.org/1999/xlink">
    <!-- Generator: Sketch 55.2 (78181) - https://sketchapp.com -->
    <title>Logo@1x</title>
    <desc>Created with Sketch.</desc>
    <g id="页面1" stroke="none" stroke-width="1" fill="none" fill-rule="evenodd">
        <g id="客服_聊天窗口对话中" transform="translate(-20.000000, -13.000000)" fill-rule="nonzero">
            <g id="Logo" transform="translate(20.000000, 14.000000)">
                <path d="M25.7566316,1.24392857 L22.4303158,8.25557143 C21.5208421,7.95471429 20.5187368,7.79592857 19.4576842,7.79592857 C16.0648421,7.79592857 12.8058947,9.43392857 10.5397895,11.9577857 C10.5313684,11.9661429 10.5313684,11.9661429 10.5229474,11.9745 L5.23452632,7.66221429 C5.24294737,7.65385714 5.24294737,7.65385714 5.25136842,7.6455 C9.13347368,3.28307143 14.784,0.45 20.6290526,0.45 C22.4555789,0.45 24.1903158,0.725785714 25.7566316,1.24392857 Z" id="Shape" fill="#5CB0FA"></path>
                <path d="M8.61894737,23.9085 C8.62821053,23.9085 8.62821053,23.9168571 8.62821053,23.9168571 L6.38821053,25.3626429 L8.61894737,23.9085 Z" id="Shape" fill="#FFD400"></path>
                <path d="M8.16505263,22.9808571 L1.45263158,27.2680714 C0.248421053,24.7525714 -0.256,21.7941429 0.131368421,18.6017143 C0.148210526,18.3844286 0.181894737,18.1671429 0.215578947,17.9415 C0.687157895,14.9747143 1.87452632,12.1834286 3.59242105,9.73478571 C3.91242105,9.26678571 4.25768421,8.80714286 4.62821053,8.36421429 L9.91578947,12.7099286 C8.74526316,14.2392857 7.92084211,16.0360714 7.61768421,17.9498571 C7.33136842,19.7800714 7.54189474,21.5008071 8.16505263,22.9808571 Z" id="Shape" fill="#7DBEFC"></path>
                <path d="M35.6934737,14.8159286 L35.6934737,15.3758571 C35.6934737,15.5764286 35.6934737,15.777 35.6682105,15.9859286 C35.6513684,16.3035 35.6345263,16.6294286 35.6101053,16.9553571 C35.5671579,17.2812857 35.5250526,17.6072143 35.4837895,17.9415 L35.4837895,17.9498571 C35.3490526,18.7446214 35.1722105,19.5377143 34.9448421,20.3065714 C34.9195789,20.41605 34.8774737,20.5238571 34.8522105,20.6333357 C34.768,20.8924071 34.6753684,21.1422857 34.5827368,21.3938357 L16.1793684,21.3938357 L17.8593684,17.9423357 L19.5604211,14.4323357 L28.0067368,14.4323357 C27.4509474,11.8416214 25.8004211,9.74397857 23.4341053,8.64919286 L26.7932632,1.62083571 C31.9890526,3.74355 35.4164211,8.55726429 35.6867368,14.4323357 C35.6934737,14.5652143 35.6934737,14.6905714 35.6934737,14.8159286 Z" id="Shape" fill="#8FC7FC"></path>
                <path d="M30.3966316,28.3210714 C27.7776842,31.2293571 24.384,33.4531929 20.6618947,34.5972857 C18.8513684,35.1488571 16.9734737,35.45055 15.0694737,35.45055 C9.21768421,35.45055 4.46736842,32.6099571 1.96631579,28.2466929 C1.96631579,28.2383357 1.95789474,28.2383357 1.95789474,28.2299786 L6.26021053,25.44705 L6.38652632,25.3634786 L8.62652632,23.9176929 C10.0749474,26.4582643 12.8277895,28.1046214 16.2391579,28.1046214 C17.3338947,28.1046214 18.4286316,27.9291214 19.4812632,27.6031929 C21.4433684,27.0006429 23.2707368,25.8732643 24.736,24.39405 L30.3966316,28.3210714 Z" id="Shape" fill="#1890FF"></path>
                <path d="M10.5397895,11.9577857 C10.5313684,11.9661429 10.5313684,11.9661429 10.5229474,11.9745 L5.23452632,7.66221429 C5.24294737,7.65385714 5.24294737,7.65385714 5.25136842,7.6455 L10.5397895,11.9577857 Z" id="Shape" fill="#FFFFFF"></path>
                <path d="M6.26189474,25.4462143 L1.96715789,28.2458571 C1.96715789,28.2375 1.95873684,28.2375 1.95873684,28.2291429 L6.26189474,25.4462143 Z" id="Shape" fill="#FFFFFF"></path>
            </g>
        </g>
    </g>
</svg>