<?xml version="1.0" encoding="UTF-8"?>
<svg width="40px" height="40px" viewBox="0 0 40 40" version="1.1" xmlns="http://www.w3.org/2000/svg" xmlns:xlink="http://www.w3.org/1999/xlink">
    <!-- Generator: Sketch 55.2 (78181) - https://sketchapp.com -->
    <title>imagepicker/default 2@1x</title>
    <desc>Created with Sketch.</desc>
    <g id="页面1" stroke="none" stroke-width="1" fill="none" fill-rule="evenodd">
        <g id="客服_聊天窗口对话中" transform="translate(-366.000000, -1030.000000)">
            <g id="imagepicker/default-2" transform="translate(366.000000, 1030.000000)">
                <g id="imagepicker/default">
                    <rect id="bg" stroke="#DDDDDD" stroke-width="0.506329114" fill="#F7F7F7" x="0.253164557" y="0.253164557" width="39.4936709" height="39.4936709" rx="3.03797468"></rect>
                    <g id="imagepicker/_resource/add-icon2" transform="translate(3.797468, 4.050633)" fill="#999999">
                        <path d="M30.3797468,30.3797468 L2.02531646,30.3797468 C0.908227848,30.3797468 0,29.471519 0,28.3544304 L0,4.05063291 C0,2.9335443 0.908227848,2.02531646 2.02531646,2.02531646 L30.3797468,2.02531646 C31.4968354,2.02531646 32.4050633,2.9335443 32.4050633,4.05063291 L32.4050633,28.3544304 C32.4050633,29.471519 31.4968354,30.3797468 30.3797468,30.3797468 L30.3797468,30.3797468 Z M2.02531646,28.3544304 L30.3797468,28.3544304 L30.3797468,5.75632911 L22.9272152,16.7689873 C22.5949367,17.2594937 21.9113924,17.3607595 21.4493671,16.9873418 L16.5886076,13.0443038 L11.0759494,20.7183544 C10.6360759,21.3322785 9.70253165,21.2626582 9.35443038,20.5917722 L2.02531646,6.4335443 L2.02531646,28.3544304 L2.02531646,28.3544304 L2.02531646,28.3544304 Z M25.3164557,25.3164557 C24.1983122,25.3164557 23.2911392,24.4092827 23.2911392,23.2911392 C23.2911392,22.1729958 24.1983122,21.2658228 25.3164557,21.2658228 C26.4345992,21.2658228 27.3417722,22.1729958 27.3417722,23.2911392 C27.3417722,24.4092827 26.4345992,25.3164557 25.3164557,25.3164557 L25.3164557,25.3164557 L25.3164557,25.3164557 Z" id="Shape" transform="translate(16.202532, 16.202532) scale(1, -1) translate(-16.202532, -16.202532) "></path>
                    </g>
                </g>
            </g>
        </g>
    </g>
</svg>