<?xml version="1.0" encoding="UTF-8"?>
<svg width="24px" height="24px" viewBox="0 0 24 24" version="1.1" xmlns="http://www.w3.org/2000/svg" xmlns:xlink="http://www.w3.org/1999/xlink">
    <!-- Generator: Sketch 55.2 (78181) - https://sketchapp.com -->
    <title>messages@1x</title>
    <desc>Created with Sketch.</desc>
    <g id="页面1" stroke="none" stroke-width="1" fill="none" fill-rule="evenodd">
        <g id="客服_聊天窗口对话中" transform="translate(-20.000000, -84.000000)" fill="#FFFFFF" fill-rule="nonzero">
            <g id="messages" transform="translate(20.000000, 84.000000)">
                <path d="M9.22285714,6.91285714 C4.12714286,6.91285714 0,10.7357143 0,15.4542857 C0.00357825487,17.3089233 0.643504531,19.106163 1.81285714,20.5457143 C2.02232141,20.8103534 2.0924254,21.15928 2.00142857,21.4842857 L1.47857143,23.4 C1.44988113,23.5202165 1.48564759,23.6467088 1.57304081,23.734102 C1.66043404,23.8214953 1.78692631,23.8572617 1.90714286,23.8285714 L4.53857143,23.1085714 C4.78111564,23.0443437 5.03837377,23.0655297 5.26714286,23.1685714 C6.51350784,23.7179101 7.86080082,24.0010897 9.22285714,24.0000031 C14.3142857,24.0000031 18.4285714,20.1728571 18.4285714,15.4542857 C18.4285714,10.7357143 14.3142857,6.91285714 9.22285714,6.91285714 Z" id="路径"></path>
                <path d="M24,8.57142857 C24,3.85714286 19.8728571,0.0257142857 14.7771429,0.0257142857 C11.7417814,-0.00562916557 8.87816408,1.43096816 7.08857143,3.88285714 C6.88451048,4.17018703 6.86888292,4.55076511 7.04869952,4.85385804 C7.22851612,5.15695097 7.57001721,5.32565456 7.92,5.28428571 C8.34689122,5.23620554 8.77612423,5.21188233 9.20571429,5.21142857 C15.2528571,5.19857143 20.1428571,9.79714286 20.1428571,15.4542857 L20.1428571,15.4542857 C20.1335373,16.0124682 20.501302,16.5069269 21.0385714,16.6585714 L22.0714286,16.9414286 C22.1916451,16.9701189 22.3181374,16.9343524 22.4055306,16.8469592 C22.4929238,16.759566 22.5286903,16.6330737 22.5,16.5128571 L21.9728571,14.5928571 C21.8809871,14.2732725 21.9479259,13.9290161 22.1528571,13.6671429 C23.33547,12.2310869 23.9877221,10.4317187 24,8.57142857 Z" id="路径"></path>
            </g>
        </g>
    </g>
</svg>