<?xml version="1.0" encoding="UTF-8"?>
<svg width="30px" height="30px" viewBox="0 0 30 30" version="1.1" xmlns="http://www.w3.org/2000/svg" xmlns:xlink="http://www.w3.org/1999/xlink">
    <!-- Generator: Sketch 55.2 (78181) - https://sketchapp.com -->
    <title>phone-4@1x</title>
    <desc>Created with Sketch.</desc>
    <g id="页面1" stroke="none" stroke-width="1" fill="none" fill-rule="evenodd">
        <g id="5" transform="translate(-62.000000, -300.000000)" fill="#000000" fill-rule="nonzero">
            <g id="phone-4" transform="translate(62.000000, 300.000000)">
                <path d="M22.6492308,29.12375 C21,29.12375 18.6812308,28.47125 15.3532308,27.07125 C11.0012308,25.24 6.69230769,21.4075 3.22030769,16.28 L3.096,16.09875 C1.96,14.53 0.106461538,11.50125 0.106461538,8.34 C0.106461538,4.67125 1.91569231,2.80375 2.68861538,2.00625 C3.40123077,1.265 4.45969231,0.87625 5.656,0.87625 C5.88,0.87625 6.088,0.885 6.28,0.89375 L6.48430769,0.9025 C7.48369231,0.94375 8.02030769,1.18375 8.56184615,2.49625 L9.23261538,4.1475 C9.81230769,5.575 10.6061538,7.53 10.7181538,7.7725 C10.8412308,8.03125 11.2215385,8.83375 10.8092308,9.6475 C10.5704615,10.16375 10.3366154,10.43625 10.0141538,10.81375 C9.79261538,11.07375 9.64246154,11.235 9.49353846,11.39625 C9.30030769,11.60375 9.10830769,11.81 8.91138462,12.0575 C8.54953846,12.49 8.50769231,12.575 8.68,12.87625 C9.30892308,13.95125 10.6430769,16.01125 12.4683077,17.6625 C14.8596923,19.82375 16.7969231,20.62 17.7261538,21.0025 L17.9526154,21.09625 C18.0953846,21.15625 18.2504615,21.18875 18.4006154,21.18875 C18.536,21.18875 18.7895385,21.16 18.9667692,20.96875 C19.4024615,20.48875 19.9501538,19.71 20.5298462,18.885 L20.8006154,18.50125 C21.3261538,17.7425 21.9710769,17.5825 22.4190769,17.5825 C22.6824615,17.5825 22.9606154,17.6375 23.2449231,17.745 C23.8763077,17.97 26.856,19.46 28.1064615,20.09 L28.5163077,20.29375 C29.0553846,20.5575 29.4824615,20.76625 29.7138462,21.1775 C30.0596923,21.785 29.9009231,23.50625 29.3495385,25.09125 C28.6812308,27.01 26.1766154,28.51 24.1618462,28.9475 C23.7655385,29.03125 23.2904615,29.12375 22.6492308,29.12375 Z M5.656,2.1275 C4.80307692,2.1275 4.04492308,2.38625 3.63015385,2.8175 C2.84246154,3.63 1.33723077,5.18375 1.33723077,8.34 C1.33723077,10.3875 2.328,12.92875 4.05476923,15.3125 L4.23446154,15.57 C7.57353846,20.50125 11.6892308,24.17625 15.8246154,25.915 C18.9987692,27.25 21.1673846,27.8725 22.6492308,27.8725 C23.1698462,27.8725 23.5538462,27.7975 23.9033846,27.7225 C25.5796923,27.35875 27.6953846,26.08875 28.1889231,24.67125 C28.7353846,23.10125 28.6886154,21.94375 28.6270769,21.75625 C28.5864615,21.7125 28.2516923,21.54875 27.9833846,21.4175 L27.5563077,21.20625 C25.672,20.2575 23.2990769,19.0875 22.8252308,18.9175 C22.4510769,18.775 22.2196923,18.6225 21.8036923,19.2225 L21.5316923,19.60875 C20.9298462,20.4675 20.36,21.27625 19.8676923,21.81875 C19.3003077,22.4325 18.3169231,22.6025 17.4812308,22.24875 L17.2658462,22.15875 C16.3489231,21.78125 14.2024615,20.89875 11.6510769,18.59375 C9.70153846,16.83125 8.28861538,14.65 7.62030769,13.5075 C6.99384615,12.41625 7.61538462,11.6775 7.94892308,11.28 C8.17046154,11 8.38461538,10.77 8.59753846,10.53875 C8.73538462,10.39 8.87446154,10.24 9.01476923,10.075 C9.39015385,9.63625 9.528,9.47375 9.70523077,9.095 C9.80738462,8.89375 9.77415385,8.66375 9.60553846,8.31 C9.48738462,8.05375 8.90523077,6.62125 8.09415385,4.62375 L7.42461538,2.9775 C7.096,2.18 7.00738462,2.17625 6.43630769,2.1525 L6.22584615,2.14375 C6.05107692,2.135 5.86030769,2.1275 5.656,2.1275 Z" id="形状"></path>
            </g>
        </g>
    </g>
</svg>