<?xml version="1.0" encoding="UTF-8"?>
<svg width="68px" height="68px" viewBox="0 0 68 68" version="1.1" xmlns="http://www.w3.org/2000/svg" xmlns:xlink="http://www.w3.org/1999/xlink">
    <!-- Generator: Sketch 55.2 (78181) - https://sketchapp.com -->
    <title>send-message-send-share.1@1x</title>
    <desc>Created with Sketch.</desc>
    <g id="页面1" stroke="none" stroke-width="1" fill="none" fill-rule="evenodd" stroke-linecap="round" stroke-linejoin="round">
        <g id="2" transform="translate(-574.000000, -1041.000000)" stroke="#333333" stroke-width="3">
            <g id="send-message-send-share.1" transform="translate(574.000000, 1041.000000)">
                <g id="编组" transform="translate(8.500000, 8.520000)">
                    <path d="M20.7116667,27.21856 L23.2475,38.65808 C23.562,40.08376 25.4546667,40.39048 26.2026667,39.13804 L38.0176667,19.40004 C38.6608333,18.32368 37.8873333,16.9548 36.635,16.9548 L14.365,16.9548 C12.9285,16.9548 12.2088333,18.69572 13.226,19.71244 L20.7116667,27.21856 Z" id="路径"></path>
                    <path d="M38.0233333,17.75 L20.7116667,27.2072" id="路径"></path>
                    <path d="M43.5313333,7.5261136 C53.4897067,17.5079184 53.4897067,33.6916016 43.5313333,43.6733496 C33.57296,53.6551544 17.4272667,53.6551544 7.46895,43.6733496 C-2.48942333,33.6915448 -2.48942333,17.5078616 7.46895,7.5261136 C17.4273233,-2.4556912 33.5730167,-2.4556912 43.5313333,7.5261136" id="路径"></path>
                </g>
            </g>
        </g>
    </g>
</svg>