<?xml version="1.0" encoding="UTF-8"?>
<svg width="24px" height="24px" viewBox="0 0 24 24" version="1.1" xmlns="http://www.w3.org/2000/svg" xmlns:xlink="http://www.w3.org/1999/xlink">
    <!-- Generator: Sketch 55.2 (78181) - https://sketchapp.com -->
    <title>middle-alignment@1x</title>
    <desc>Created with Sketch.</desc>
    <g id="页面1" stroke="none" stroke-width="1" fill="none" fill-rule="evenodd">
        <g id="客服_聊天窗口对话中" transform="translate(-20.000000, -148.000000)" fill="#FFFFFF" fill-rule="nonzero">
            <g id="middle-alignment" transform="translate(20.000000, 148.000000)">
                <path d="M20.2885714,0 L3.71142857,0 C1.66166317,0 0,1.66166317 0,3.71142857 L0,20.2885714 C0,22.3383368 1.66166317,24 3.71142857,24 L20.2885714,24 C22.3383368,24 24,22.3383368 24,20.2885714 L24,3.71142857 C24,1.66166317 22.3383368,0 20.2885714,0 Z M15.4285714,17.22 C15.4285714,17.6507821 15.0793535,18 14.6485714,18 L9.35142857,18 C8.92064647,18 8.57142857,17.6507821 8.57142857,17.22 L8.57142857,17.0657143 C8.57142857,16.6349322 8.92064647,16.2857143 9.35142857,16.2857143 L14.6485714,16.2857143 C15.0793535,16.2857143 15.4285714,16.6349322 15.4285714,17.0657143 L15.4285714,17.22 Z M17.1428571,13.7914286 C17.1428571,14.2222107 16.7936392,14.5714286 16.3628571,14.5714286 L7.63714286,14.5714286 C7.20636075,14.5714286 6.85714286,14.2222107 6.85714286,13.7914286 L6.85714286,13.6371429 C6.85714286,13.2063608 7.20636075,12.8571429 7.63714286,12.8571429 L16.3628571,12.8571429 C16.7936392,12.8571429 17.1428571,13.2063608 17.1428571,13.6371429 L17.1428571,13.7914286 Z M8.57142857,10.3628571 L8.57142857,10.2085714 C8.57142857,9.77778932 8.92064647,9.42857143 9.35142857,9.42857143 L14.6485714,9.42857143 C15.0793535,9.42857143 15.4285714,9.77778932 15.4285714,10.2085714 L15.4285714,10.3628571 C15.4285714,10.7936392 15.0793535,11.1428571 14.6485714,11.1428571 L9.35142857,11.1428571 C8.92064647,11.1428571 8.57142857,10.7936392 8.57142857,10.3628571 L8.57142857,10.3628571 Z M18.8571429,6.93428571 C18.8571429,7.14115458 18.7749645,7.33955063 18.6286861,7.485829 C18.4824078,7.63210738 18.2840117,7.71428571 18.0771429,7.71428571 L5.92285714,7.71428571 C5.49207504,7.71428571 5.14285714,7.36506782 5.14285714,6.93428571 L5.14285714,6.78 C5.14285714,6.57313114 5.22503548,6.37473509 5.37131385,6.22845671 C5.51759223,6.08217834 5.71598828,6 5.92285714,6 L18.0771429,6 C18.2840117,6 18.4824078,6.08217834 18.6286861,6.22845671 C18.7749645,6.37473509 18.8571429,6.57313114 18.8571429,6.78 L18.8571429,6.93428571 Z" id="形状"></path>
            </g>
        </g>
    </g>
</svg>