<?xml version="1.0" standalone="no"?><!DOCTYPE svg PUBLIC "-//W3C//DTD SVG 1.1//EN" "http://www.w3.org/Graphics/SVG/1.1/DTD/svg11.dtd"><svg t="1576825855648" class="icon" viewBox="0 0 1536 1024" version="1.1" xmlns="http://www.w3.org/2000/svg" p-id="10075" xmlns:xlink="http://www.w3.org/1999/xlink" width="300" height="200"><defs><style type="text/css"></style></defs><path d="M0 0h1536v1024H0z" fill="#227FBB" p-id="10076"></path><path d="M173.056 0L1536 908.608V1024h-173.056L0 115.392V0z" fill="#FFFFFF" p-id="10077"></path><path d="M173.056 1024L1536 115.392V0h-173.056L0 908.608V1024z" fill="#FFFFFF" p-id="10078"></path><path d="M0 0v76.928L652.608 512H768zM768 512v-76.928L1420.608 0H1536zM1536 1024v-76.928L883.392 512H768zM0 1024l768-512v76.928L115.392 1024z" fill="#E94B35" p-id="10079"></path><path d="M928 352h608v320H928v352H608V672H0V352h608V0h320v352z" fill="#FFFFFF" p-id="10080"></path><path d="M864 416h672v192H864v416h-192V608H0v-192h672V0h192v416z" fill="#E94B35" p-id="10081"></path></svg>