<svg xmlns="http://www.w3.org/2000/svg" viewBox="0 0 1024 1024" width="1024" height="1024">
	<style>
		tspan { white-space:pre }
		.shp0 { fill: #ffffff } 
	</style>
	<path id="Layer" class="shp0" d="M72.1 124.89C72.1 95.75 95.75 72.1 124.89 72.1L371.23 72.1C400.38 72.1 424.02 95.75 424.02 124.89C424.02 154.03 400.38 177.68 371.23 177.68L254.07 177.68L447.46 375.05C467.77 395.98 467.26 429.38 446.32 449.69C425.4 470 391.99 469.49 371.68 448.56L177.68 250.57L177.68 371.23C177.68 400.37 154.03 424.02 124.89 424.02C95.75 424.02 72.1 400.38 72.1 371.23L72.1 160.08C72.1 153.91 73.17 147.99 75.12 142.49C73.17 136.98 72.1 131.06 72.1 124.89ZM652.32 575.44L846.32 773.43L846.32 652.77C846.32 623.62 869.97 599.98 899.11 599.98C928.25 599.98 951.9 623.62 951.9 652.77L951.9 863.92C951.9 870.09 950.83 876.01 948.88 881.51C950.83 887.02 951.9 892.94 951.9 899.11C951.9 928.25 928.25 951.9 899.11 951.9L652.77 951.9C623.63 951.9 599.98 928.25 599.98 899.11C599.98 869.97 623.62 846.32 652.77 846.32L769.92 846.32L576.54 648.95C556.26 628.04 556.74 594.62 577.68 574.31C598.6 553.99 632.01 554.51 652.32 575.44Z" />
</svg>