<svg xmlns="http://www.w3.org/2000/svg" width="65" height="65" viewBox="0 0 65 65">
    <g fill="none" fill-rule="evenodd">
        <g fill="#FFF" fill-rule="nonzero">
            <g>
                <g>
                    <path d="M50.9.041s10.614 4.34 2.774 21.036l.092 1.85s1.952-.136 3.973.114c2.161.272 4.428.973 4.428 2.74 0 3.416-7.388 2.863-11.816 3.416 0 0-2.03 10.618-6.646 16.064 0 0 2.867 3.687 2.867 9.877 0 6.182-4.713 9.124-14.578 9.124-9.878 0-14.955-3.407-14.955-8.571 0-5.165 2.307-8.86 3.135-10.15 0 0-4.985-5.261-6.826-16.34 0 0-11.811.557-11.811-3.415 0-3.102 7.483-3.053 8.081-3.044h.038l.276-1.66S2.182 4.196 12.335.408c0 0-1.57 11.904 7.103 16.152l24.635-.096S53.122 12.83 50.899.04zM18.51 30.7c-.222 1.253 1.631 2.628 4.139 3.07 2.507.442 4.718-.216 4.94-1.47.22-1.253-1.633-2.628-4.14-3.07-2.507-.442-4.719.216-4.94 1.47zm27.518 0c-.222-1.254-2.433-1.912-4.94-1.47-2.508.442-4.361 1.817-4.14 3.07.221 1.254 2.433 1.912 4.94 1.47 2.507-.442 4.36-1.817 4.14-3.07z" transform="translate(-479 -986) translate(0 828) translate(479.415 158.268)"/>
                </g>
            </g>
        </g>
    </g>
</svg>
